Jinko-Bold.ufo
<glyph name="exclam" format="1">
  <advance width="573"/>
  <unicode hex="0021"/>
  <outline>
    <contour>
      <point x="286" y="-18" type="curve" smooth="yes"/>
      <point x="180" y="-18"/>
      <point x="92" y="70"/>
      <point x="92" y="176" type="curve" smooth="yes"/>
      <point x="92" y="284"/>
      <point x="180" y="371"/>
      <point x="286" y="371" type="curve" smooth="yes"/>
      <point x="394" y="371"/>
      <point x="481" y="284"/>
      <point x="481" y="176" type="curve" smooth="yes"/>
      <point x="481" y="70"/>
      <point x="394" y="-18"/>
    </contour>
    <contour>
      <point x="204" y="523" type="line"/>
      <point x="101" y="1481" type="line"/>
      <point x="471" y="1481" type="line"/>
      <point x="371" y="523" type="line"/>
    </contour>
  </outline>
</glyph>
<glyph name="ampersand" format="1">
  <advance width="1557"/>
  <unicode hex="0026"/>
  <outline>
    <contour>
      <point x="647" y="1504" type="curve" smooth="yes"/>
      <point x="947" y="1504"/>
      <point x="1097" y="1359"/>
      <point x="1097" y="1173" type="curve" smooth="yes"/>
      <point x="1097" y="1026"/>
      <point x="1018" y="898"/>
      <point x="772" y="800" type="curve"/>
      <point x="866" y="703"/>
      <point x="994" y="574"/>
      <point x="1089" y="479" type="curve"/>
      <point x="1133" y="549"/>
      <point x="1142" y="688"/>
      <point x="1142" y="755" type="curve" smooth="yes"/>
      <point x="1142" y="775" type="line"/>
      <point x="1447" y="751" type="line"/>
      <point x="1437" y="599"/>
      <point x="1416" y="430"/>
      <point x="1280" y="302" type="curve"/>
      <point x="1316" y="267"/>
      <point x="1615" y="0"/>
      <point x="1615" y="0" type="curve"/>
      <point x="1192" y="0" type="line"/>
      <point x="1192" y="0"/>
      <point x="1081" y="97"/>
      <point x="1069" y="109" type="curve"/>
      <point x="933" y="21"/>
      <point x="790" y="-24"/>
      <point x="630" y="-24" type="curve" smooth="yes"/>
      <point x="278" y="-24"/>
      <point x="66" y="171"/>
      <point x="66" y="433" type="curve" smooth="yes"/>
      <point x="66" y="634"/>
      <point x="187" y="757"/>
      <point x="346" y="837" type="curve"/>
      <point x="257" y="919"/>
      <point x="169" y="1013"/>
      <point x="169" y="1154" type="curve" smooth="yes"/>
      <point x="169" y="1320"/>
      <point x="294" y="1504"/>
    </contour>
    <contour>
      <point x="394" y="465" type="curve" smooth="yes"/>
      <point x="394" y="298"/>
      <point x="526" y="213"/>
      <point x="692" y="213" type="curve" smooth="yes"/>
      <point x="778" y="213"/>
      <point x="833" y="232"/>
      <point x="905" y="274" type="curve"/>
      <point x="769" y="406"/>
      <point x="641" y="532"/>
      <point x="505" y="668" type="curve"/>
      <point x="442" y="625"/>
      <point x="394" y="544"/>
    </contour>
    <contour>
      <point x="630" y="1296" type="curve" smooth="yes"/>
      <point x="568" y="1297"/>
      <point x="493" y="1262"/>
      <point x="493" y="1159" type="curve" smooth="yes"/>
      <point x="493" y="1086"/>
      <point x="551" y="1024"/>
      <point x="630" y="943" type="curve"/>
      <point x="742" y="1009"/>
      <point x="783" y="1075"/>
      <point x="783" y="1149" type="curve" smooth="yes"/>
      <point x="783" y="1265"/>
      <point x="705" y="1296"/>
    </contour>
  </outline>
</glyph>
<glyph name="parenleft" format="1">
  <advance width="747"/>
  <unicode hex="0028"/>
  <outline>
    <contour>
      <point x="702" y="-349" type="line"/>
      <point x="415" y="-349" type="line"/>
      <point x="195" y="-99"/>
      <point x="49" y="194"/>
      <point x="49" y="566" type="curve" smooth="yes"/>
      <point x="49" y="962"/>
      <point x="193" y="1232"/>
      <point x="415" y="1481" type="curve"/>
      <point x="702" y="1481" type="line"/>
      <point x="702" y="1421" type="line"/>
      <point x="532" y="1228"/>
      <point x="353" y="939"/>
      <point x="353" y="566" type="curve" smooth="yes"/>
      <point x="353" y="198"/>
      <point x="521" y="-89"/>
      <point x="702" y="-289" type="curve"/>
    </contour>
  </outline>
</glyph>
<glyph name="asterisk" format="1">
  <advance width="991"/>
  <unicode hex="002A"/>
  <outline>
    <contour>
      <point x="92" y="863" type="curve" smooth="yes"/>
      <point x="92" y="897"/>
      <point x="108" y="932"/>
      <point x="141" y="952" type="curve" smooth="yes"/>
      <point x="203" y="987"/>
      <point x="316" y="1007"/>
      <point x="405" y="1038" type="curve"/>
      <point x="316" y="1069"/>
      <point x="203" y="1089"/>
      <point x="141" y="1124" type="curve" smooth="yes"/>
      <point x="108" y="1144"/>
      <point x="92" y="1179"/>
      <point x="92" y="1213" type="curve" smooth="yes"/>
      <point x="92" y="1274"/>
      <point x="141" y="1314"/>
      <point x="196" y="1315" type="curve" smooth="yes"/>
      <point x="212" y="1315"/>
      <point x="229" y="1311"/>
      <point x="244" y="1302" type="curve" smooth="yes"/>
      <point x="306" y="1267"/>
      <point x="379" y="1180"/>
      <point x="450" y="1118" type="curve"/>
      <point x="432" y="1211"/>
      <point x="393" y="1317"/>
      <point x="393" y="1388" type="curve" smooth="yes"/>
      <point x="393" y="1447"/>
      <point x="446" y="1490"/>
      <point x="496" y="1490" type="curve" smooth="yes"/>
      <point x="546" y="1490"/>
      <point x="599" y="1447"/>
      <point x="599" y="1388" type="curve"/>
      <point x="596" y="1374"/>
      <point x="560" y="1211"/>
      <point x="542" y="1118" type="curve"/>
      <point x="613" y="1180"/>
      <point x="686" y="1267"/>
      <point x="748" y="1302" type="curve" smooth="yes"/>
      <point x="763" y="1311"/>
      <point x="781" y="1315"/>
      <point x="797" y="1315" type="curve" smooth="yes"/>
      <point x="852" y="1314"/>
      <point x="900" y="1274"/>
      <point x="900" y="1213" type="curve" smooth="yes"/>
      <point x="900" y="1179"/>
      <point x="884" y="1144"/>
      <point x="851" y="1124" type="curve" smooth="yes"/>
      <point x="789" y="1089"/>
      <point x="677" y="1069"/>
      <point x="588" y="1038" type="curve"/>
      <point x="677" y="1007"/>
      <point x="789" y="987"/>
      <point x="851" y="952" type="curve" smooth="yes"/>
      <point x="884" y="932"/>
      <point x="900" y="897"/>
      <point x="900" y="863" type="curve" smooth="yes"/>
      <point x="900" y="802"/>
      <point x="852" y="762"/>
      <point x="797" y="761" type="curve" smooth="yes"/>
      <point x="781" y="761"/>
      <point x="763" y="765"/>
      <point x="748" y="774" type="curve" smooth="yes"/>
      <point x="686" y="809"/>
      <point x="613" y="896"/>
      <point x="542" y="958" type="curve"/>
      <point x="560" y="865"/>
      <point x="599" y="759"/>
      <point x="599" y="688" type="curve" smooth="yes"/>
      <point x="599" y="629"/>
      <point x="546" y="586"/>
      <point x="496" y="586" type="curve" smooth="yes"/>
      <point x="446" y="586"/>
      <point x="393" y="629"/>
      <point x="393" y="688" type="curve"/>
      <point x="396" y="702"/>
      <point x="432" y="865"/>
      <point x="450" y="958" type="curve"/>
      <point x="379" y="896"/>
      <point x="306" y="809"/>
      <point x="244" y="774" type="curve" smooth="yes"/>
      <point x="229" y="765"/>
      <point x="212" y="761"/>
      <point x="196" y="761" type="curve" smooth="yes"/>
      <point x="141" y="762"/>
      <point x="92" y="802"/>
    </contour>
  </outline>
</glyph>
<glyph name="comma" format="1">
  <advance width="467"/>
  <unicode hex="002C"/>
  <outline>
    <contour>
      <point x="63" y="-263" type="line"/>
      <point x="114" y="299" type="line"/>
      <point x="418" y="299" type="line"/>
      <point x="225" y="-263" type="line"/>
    </contour>
  </outline>
</glyph>
<glyph name="hyphen" format="1">
  <advance width="836"/>
  <unicode hex="002D"/>
  <outline>
    <contour>
      <point x="94" y="480" type="line"/>
      <point x="94" y="706" type="line"/>
      <point x="743" y="706" type="line"/>
      <point x="743" y="480" type="line"/>
    </contour>
  </outline>
</glyph>
<glyph name="one" format="1">
  <advance width="1088"/>
  <unicode hex="0031"/>
  <outline>
    <contour>
      <point x="175" y="0" type="line"/>
      <point x="175" y="228" type="line"/>
      <point x="432" y="228" type="line"/>
      <point x="432" y="1152" type="line"/>
      <point x="168" y="1093" type="line"/>
      <point x="168" y="1300" type="line"/>
      <point x="334" y="1323"/>
      <point x="408" y="1374"/>
      <point x="440" y="1482" type="curve"/>
      <point x="522" y="1481"/>
      <point x="683" y="1482"/>
      <point x="765" y="1482" type="curve"/>
      <point x="765" y="228" type="line"/>
      <point x="1013" y="228" type="line"/>
      <point x="1013" y="0" type="line"/>
    </contour>
  </outline>
</glyph>
<glyph name="two" format="1">
  <advance width="1222"/>
  <unicode hex="0032"/>
  <outline>
    <contour>
      <point x="106" y="0" type="line"/>
      <point x="106" y="218" type="line"/>
      <point x="333" y="413"/>
      <point x="775" y="812"/>
      <point x="775" y="1041" type="curve" smooth="yes"/>
      <point x="775" y="1197"/>
      <point x="681" y="1247"/>
      <point x="566" y="1247" type="curve" smooth="yes"/>
      <point x="433" y="1247"/>
      <point x="272" y="1180"/>
      <point x="198" y="1133" type="curve"/>
      <point x="130" y="1373" type="line"/>
      <point x="205" y="1439"/>
      <point x="436" y="1504"/>
      <point x="604" y="1504" type="curve" smooth="yes"/>
      <point x="942" y="1504"/>
      <point x="1116" y="1333"/>
      <point x="1116" y="1066" type="curve" smooth="yes"/>
      <point x="1116" y="770"/>
      <point x="795" y="465"/>
      <point x="540" y="254" type="curve"/>
      <point x="1151" y="254" type="line"/>
      <point x="1151" y="0" type="line"/>
    </contour>
  </outline>
</glyph>
<glyph name="three" format="1">
  <advance width="1207"/>
  <unicode hex="0033"/>
  <outline>
    <contour>
      <point x="553" y="-24" type="curve" smooth="yes"/>
      <point x="327" y="-24"/>
      <point x="182" y="32"/>
      <point x="94" y="95" type="curve"/>
      <point x="94" y="369" type="line"/>
      <point x="161" y="369" type="line"/>
      <point x="161" y="369"/>
      <point x="267" y="233"/>
      <point x="511" y="233" type="curve" smooth="yes"/>
      <point x="673" y="233"/>
      <point x="808" y="292"/>
      <point x="808" y="455" type="curve" smooth="yes"/>
      <point x="808" y="589"/>
      <point x="724" y="674"/>
      <point x="515" y="674" type="curve" smooth="yes"/>
      <point x="382" y="674" type="line"/>
      <point x="382" y="880" type="line"/>
      <point x="459" y="880" type="line" smooth="yes"/>
      <point x="651" y="880"/>
      <point x="757" y="935"/>
      <point x="757" y="1070" type="curve" smooth="yes"/>
      <point x="757" y="1199"/>
      <point x="632" y="1247"/>
      <point x="507" y="1247" type="curve" smooth="yes"/>
      <point x="277" y="1247"/>
      <point x="163" y="1112"/>
      <point x="163" y="1112" type="curve"/>
      <point x="94" y="1112" type="line"/>
      <point x="94" y="1379" type="line"/>
      <point x="188" y="1446"/>
      <point x="378" y="1504"/>
      <point x="554" y="1504" type="curve" smooth="yes"/>
      <point x="926" y="1504"/>
      <point x="1093" y="1317"/>
      <point x="1093" y="1109" type="curve" smooth="yes"/>
      <point x="1093" y="920"/>
      <point x="967" y="819"/>
      <point x="844" y="778" type="curve"/>
      <point x="995" y="742"/>
      <point x="1147" y="620"/>
      <point x="1147" y="425" type="curve" smooth="yes"/>
      <point x="1147" y="152"/>
      <point x="931" y="-24"/>
    </contour>
  </outline>
</glyph>
<glyph name="four" format="1">
  <advance width="1277"/>
  <unicode hex="0034"/>
  <outline>
    <contour>
      <point x="734" y="0" type="line"/>
      <point x="734" y="245" type="line"/>
      <point x="51" y="245" type="line"/>
      <point x="51" y="485" type="line"/>
      <point x="582" y="1481" type="line"/>
      <point x="1047" y="1481" type="line"/>
      <point x="1047" y="480" type="line"/>
      <point x="1220" y="480" type="line"/>
      <point x="1220" y="245" type="line"/>
      <point x="1047" y="245" type="line"/>
      <point x="1047" y="0" type="line"/>
    </contour>
    <contour>
      <point x="356" y="480" type="line"/>
      <point x="734" y="480" type="line"/>
      <point x="734" y="1229" type="line"/>
    </contour>
  </outline>
</glyph>
<glyph name="six" format="1">
  <advance width="1252"/>
  <unicode hex="0036"/>
  <outline>
    <contour>
      <point x="629" y="-24" type="curve" smooth="yes"/>
      <point x="301" y="-24"/>
      <point x="89" y="191"/>
      <point x="89" y="555" type="curve" smooth="yes"/>
      <point x="89" y="1051"/>
      <point x="390" y="1457"/>
      <point x="965" y="1482" type="curve"/>
      <point x="1017" y="1247" type="line"/>
      <point x="720" y="1220"/>
      <point x="527" y="1100"/>
      <point x="462" y="845" type="curve"/>
      <point x="534" y="901"/>
      <point x="649" y="945"/>
      <point x="743" y="945" type="curve" smooth="yes"/>
      <point x="992" y="945"/>
      <point x="1166" y="788"/>
      <point x="1166" y="487" type="curve" smooth="yes"/>
      <point x="1166" y="169"/>
      <point x="955" y="-24"/>
    </contour>
    <contour>
      <point x="615" y="205" type="curve" smooth="yes"/>
      <point x="773" y="205"/>
      <point x="836" y="318"/>
      <point x="836" y="477" type="curve" smooth="yes"/>
      <point x="836" y="635"/>
      <point x="742" y="712"/>
      <point x="623" y="712" type="curve" smooth="yes"/>
      <point x="485" y="711"/>
      <point x="412" y="589"/>
      <point x="412" y="464" type="curve" smooth="yes"/>
      <point x="412" y="325"/>
      <point x="480" y="205"/>
    </contour>
  </outline>
</glyph>
<glyph name="seven" format="1">
  <advance width="1199"/>
  <unicode hex="0037"/>
  <outline>
    <contour>
      <point x="215" y="0" type="line"/>
      <point x="768" y="1239" type="line"/>
      <point x="319" y="1239" type="line"/>
      <point x="319" y="1087" type="line"/>
      <point x="99" y="1087" type="line"/>
      <point x="99" y="1481" type="line"/>
      <point x="1131" y="1481" type="line"/>
      <point x="1131" y="1242" type="line"/>
      <point x="590" y="0" type="line"/>
    </contour>
  </outline>
</glyph>
<glyph name="nine" format="1">
  <advance width="1243"/>
  <unicode hex="0039"/>
  <outline>
    <contour>
      <point x="271" y="-8" type="curve"/>
      <point x="258" y="50"/>
      <point x="235" y="157"/>
      <point x="219" y="213" type="curve"/>
      <point x="319" y="221"/>
      <point x="732" y="305"/>
      <point x="808" y="629" type="curve"/>
      <point x="726" y="549"/>
      <point x="594" y="528"/>
      <point x="498" y="528" type="curve" smooth="yes"/>
      <point x="309" y="528"/>
      <point x="71" y="649"/>
      <point x="71" y="985" type="curve" smooth="yes"/>
      <point x="71" y="1299"/>
      <point x="287" y="1495"/>
      <point x="612" y="1495" type="curve" smooth="yes"/>
      <point x="943" y="1495"/>
      <point x="1154" y="1281"/>
      <point x="1154" y="893" type="curve"/>
      <point x="1154" y="431.4"/>
      <point x="875" y="-7"/>
    </contour>
    <contour>
      <point x="617" y="765" type="curve" smooth="yes"/>
      <point x="757" y="765"/>
      <point x="815" y="881"/>
      <point x="815" y="991" type="curve" smooth="yes"/>
      <point x="815" y="1154"/>
      <point x="747" y="1259"/>
      <point x="619" y="1259" type="curve" smooth="yes"/>
      <point x="502" y="1259"/>
      <point x="407" y="1186"/>
      <point x="407" y="1007" type="curve" smooth="yes"/>
      <point x="407" y="837"/>
      <point x="496" y="765"/>
    </contour>
  </outline>
</glyph>
<glyph name="less" format="1">
  <advance width="1437"/>
  <unicode hex="003C"/>
  <outline>
    <contour>
      <point x="1321" y="-15" type="line"/>
      <point x="101" y="471" type="line"/>
      <point x="101" y="678" type="line"/>
      <point x="1321" y="1163" type="line"/>
      <point x="1321" y="916" type="line"/>
      <point x="1321" y="916"/>
      <point x="493" y="601"/>
      <point x="427" y="580" type="curve"/>
      <point x="487" y="557"/>
      <point x="1321" y="234"/>
      <point x="1321" y="234" type="curve"/>
    </contour>
  </outline>
</glyph>
<glyph name="at" format="1">
  <advance width="1792"/>
  <unicode hex="0040"/>
  <outline>
    <contour>
      <point x="953" y="-137" type="curve" smooth="yes"/>
      <point x="453" y="-137"/>
      <point x="109" y="188"/>
      <point x="109" y="655" type="curve" smooth="yes"/>
      <point x="109" y="1127"/>
      <point x="467" y="1466"/>
      <point x="955" y="1466" type="curve" smooth="yes"/>
      <point x="1418" y="1466"/>
      <point x="1743" y="1157"/>
      <point x="1743" y="732" type="curve" smooth="yes"/>
      <point x="1743" y="402"/>
      <point x="1574" y="185"/>
      <point x="1340" y="185" type="curve" smooth="yes"/>
      <point x="1224" y="185"/>
      <point x="1146" y="229"/>
      <point x="1114" y="321" type="curve"/>
      <point x="1059" y="254"/>
      <point x="936" y="211"/>
      <point x="840" y="211" type="curve" smooth="yes"/>
      <point x="609" y="211"/>
      <point x="474" y="395"/>
      <point x="474" y="603" type="curve" smooth="yes"/>
      <point x="474" y="892"/>
      <point x="653" y="1125"/>
      <point x="903" y="1125" type="curve" smooth="yes"/>
      <point x="1049" y="1125"/>
      <point x="1108" y="1057"/>
      <point x="1155" y="1021" type="curve"/>
      <point x="1167" y="1089" type="line"/>
      <point x="1337" y="1089" type="line"/>
      <point x="1270" y="503" type="line" smooth="yes"/>
      <point x="1267" y="480"/>
      <point x="1265" y="456"/>
      <point x="1265" y="436" type="curve" smooth="yes"/>
      <point x="1265" y="358"/>
      <point x="1294" y="321"/>
      <point x="1367" y="321" type="curve" smooth="yes"/>
      <point x="1519" y="321"/>
      <point x="1573" y="531"/>
      <point x="1573" y="714" type="curve" smooth="yes"/>
      <point x="1573" y="1056"/>
      <point x="1334" y="1306"/>
      <point x="960" y="1306" type="curve" smooth="yes"/>
      <point x="544" y="1306"/>
      <point x="288" y="1015"/>
      <point x="288" y="654" type="curve" smooth="yes"/>
      <point x="288" y="282"/>
      <point x="543" y="20"/>
      <point x="955" y="20" type="curve" smooth="yes"/>
      <point x="1105" y="20"/>
      <point x="1247" y="58"/>
      <point x="1372" y="126" type="curve"/>
      <point x="1421" y="8" type="line"/>
      <point x="1285" y="-89"/>
      <point x="1112" y="-137"/>
    </contour>
    <contour>
      <point x="872" y="349" type="curve" smooth="yes"/>
      <point x="953" y="349"/>
      <point x="1027" y="381"/>
      <point x="1082" y="413" type="curve"/>
      <point x="1129" y="869" type="line"/>
      <point x="1087" y="926"/>
      <point x="1019" y="975"/>
      <point x="937" y="975" type="curve" smooth="yes"/>
      <point x="776" y="975"/>
      <point x="661" y="823"/>
      <point x="661" y="614" type="curve" smooth="yes"/>
      <point x="661" y="448"/>
      <point x="742" y="349"/>
    </contour>
  </outline>
</glyph>
<glyph name="A" format="1">
  <advance width="1397"/>
  <unicode hex="0041"/>
  <outline>
    <contour>
      <point x="22" y="0" type="line"/>
      <point x="515" y="1481" type="line"/>
      <point x="879" y="1481" type="line"/>
      <point x="1375" y="0" type="line"/>
      <point x="1046" y="0" type="line"/>
      <point x="948" y="305" type="line"/>
      <point x="446" y="305" type="line"/>
      <point x="349" y="0" type="line"/>
    </contour>
    <contour>
      <point x="513" y="550" type="line"/>
      <point x="881" y="550" type="line"/>
      <point x="696" y="1193" type="line"/>
    </contour>
  </outline>
</glyph>
<glyph name="B" format="1">
  <advance width="1392"/>
  <unicode hex="0042"/>
  <outline>
    <contour>
      <point x="156" y="0" type="line"/>
      <point x="156" y="1481" type="line"/>
      <point x="555" y="1481" type="line" smooth="yes"/>
      <point x="970" y="1481"/>
      <point x="1196" y="1411"/>
      <point x="1196" y="1083" type="curve" smooth="yes"/>
      <point x="1196" y="961"/>
      <point x="1137" y="849"/>
      <point x="1004" y="798" type="curve"/>
      <point x="1004" y="792" type="line"/>
      <point x="1183" y="757"/>
      <point x="1296" y="627"/>
      <point x="1296" y="445" type="curve" smooth="yes"/>
      <point x="1296" y="123"/>
      <point x="1060" y="0"/>
      <point x="724" y="0" type="curve" smooth="yes"/>
    </contour>
    <contour>
      <point x="478" y="244" type="line"/>
      <point x="705" y="244" type="line" smooth="yes"/>
      <point x="879" y="244"/>
      <point x="968" y="328"/>
      <point x="968" y="453" type="curve" smooth="yes"/>
      <point x="968" y="619"/>
      <point x="796" y="646"/>
      <point x="610" y="646" type="curve" smooth="yes"/>
      <point x="478" y="646" type="line"/>
    </contour>
    <contour>
      <point x="478" y="876" type="line"/>
      <point x="585" y="876" type="line" smooth="yes"/>
      <point x="805" y="876"/>
      <point x="901" y="918"/>
      <point x="901" y="1061" type="curve" smooth="yes"/>
      <point x="901" y="1197"/>
      <point x="803" y="1237"/>
      <point x="594" y="1237" type="curve" smooth="yes"/>
      <point x="478" y="1237" type="line"/>
    </contour>
  </outline>
</glyph>
<glyph name="C" format="1">
  <advance width="1355"/>
  <unicode hex="0043"/>
  <outline>
    <contour>
      <point x="825" y="-24" type="curve" smooth="yes"/>
      <point x="332" y="-24"/>
      <point x="109" y="254"/>
      <point x="109" y="741" type="curve" smooth="yes"/>
      <point x="109" y="1232"/>
      <point x="383" y="1504"/>
      <point x="829" y="1504" type="curve" smooth="yes"/>
      <point x="1021" y="1504"/>
      <point x="1160" y="1458"/>
      <point x="1288" y="1387" type="curve"/>
      <point x="1219" y="1128" type="line"/>
      <point x="1219" y="1128"/>
      <point x="1077" y="1247"/>
      <point x="859" y="1247" type="curve" smooth="yes"/>
      <point x="591" y="1247"/>
      <point x="438" y="1082"/>
      <point x="438" y="738" type="curve" smooth="yes"/>
      <point x="438" y="397"/>
      <point x="580" y="233"/>
      <point x="863" y="233" type="curve" smooth="yes"/>
      <point x="1062" y="233"/>
      <point x="1230" y="348"/>
      <point x="1230" y="348" type="curve"/>
      <point x="1289" y="103" type="line"/>
      <point x="1153" y="22"/>
      <point x="1019" y="-24"/>
    </contour>
  </outline>
</glyph>
<glyph name="E" format="1">
  <advance width="1203"/>
  <unicode hex="0045"/>
  <outline>
    <contour>
      <point x="157" y="0" type="line"/>
      <point x="157" y="1481" type="line"/>
      <point x="1117" y="1481" type="line"/>
      <point x="1117" y="1253" type="line"/>
      <point x="478" y="1253" type="line"/>
      <point x="478" y="900" type="line"/>
      <point x="1032" y="900" type="line"/>
      <point x="1032" y="653" type="line"/>
      <point x="478" y="653" type="line"/>
      <point x="478" y="229" type="line"/>
      <point x="1116" y="229" type="line"/>
      <point x="1116" y="0" type="line"/>
    </contour>
  </outline>
</glyph>
<glyph name="F" format="1">
  <advance width="1167"/>
  <unicode hex="0046"/>
  <outline>
    <contour>
      <point x="156" y="0" type="line"/>
      <point x="156" y="1481" type="line"/>
      <point x="1127" y="1481" type="line"/>
      <point x="1127" y="1252" type="line"/>
      <point x="478" y="1252" type="line"/>
      <point x="478" y="883" type="line"/>
      <point x="1069" y="883" type="line"/>
      <point x="1069" y="636" type="line"/>
      <point x="478" y="636" type="line"/>
      <point x="478" y="0" type="line"/>
    </contour>
  </outline>
</glyph>
<glyph name="G" format="1">
  <advance width="1473"/>
  <unicode hex="0047"/>
  <outline>
    <contour>
      <point x="824" y="-24" type="curve" smooth="yes"/>
      <point x="335" y="-24"/>
      <point x="109" y="269"/>
      <point x="109" y="741" type="curve" smooth="yes"/>
      <point x="109" y="1235"/>
      <point x="354" y="1504"/>
      <point x="831" y="1504" type="curve" smooth="yes"/>
      <point x="1088" y="1504"/>
      <point x="1208" y="1435"/>
      <point x="1331" y="1360" type="curve"/>
      <point x="1264" y="1112" type="line"/>
      <point x="1264" y="1115"/>
      <point x="1088" y="1247"/>
      <point x="870" y="1247" type="curve" smooth="yes"/>
      <point x="568" y="1247"/>
      <point x="438" y="1077"/>
      <point x="438" y="746" type="curve" smooth="yes"/>
      <point x="438" y="407"/>
      <point x="570" y="233"/>
      <point x="851" y="233" type="curve" smooth="yes"/>
      <point x="990" y="233"/>
      <point x="1099" y="267"/>
      <point x="1100" y="266" type="curve"/>
      <point x="1100" y="595" type="line"/>
      <point x="754" y="595" type="line"/>
      <point x="754" y="831" type="line"/>
      <point x="1357" y="831" type="line"/>
      <point x="1357" y="132" type="line"/>
      <point x="1268" y="51"/>
      <point x="1051" y="-24"/>
    </contour>
  </outline>
</glyph>
<glyph name="H" format="1">
  <advance width="1512"/>
  <unicode hex="0048"/>
  <outline>
    <contour>
      <point x="156" y="0" type="line"/>
      <point x="156" y="1481" type="line"/>
      <point x="479" y="1481" type="line"/>
      <point x="479" y="894" type="line"/>
      <point x="1033" y="894" type="line"/>
      <point x="1033" y="1481" type="line"/>
      <point x="1357" y="1481" type="line"/>
      <point x="1357" y="0" type="line"/>
      <point x="1033" y="0" type="line"/>
      <point x="1033" y="646" type="line"/>
      <point x="479" y="646" type="line"/>
      <point x="479" y="0" type="line"/>
    </contour>
  </outline>
</glyph>
<glyph name="I" format="1">
  <advance width="901"/>
  <unicode hex="0049"/>
  <outline>
    <contour>
      <point x="76" y="0" type="line"/>
      <point x="76" y="229" type="line"/>
      <point x="289" y="229" type="line"/>
      <point x="289" y="1252" type="line"/>
      <point x="76" y="1252" type="line"/>
      <point x="76" y="1481" type="line"/>
      <point x="825" y="1481" type="line"/>
      <point x="825" y="1252" type="line"/>
      <point x="612" y="1252" type="line"/>
      <point x="612" y="229" type="line"/>
      <point x="825" y="229" type="line"/>
      <point x="825" y="0" type="line"/>
    </contour>
  </outline>
</glyph>
<glyph name="J" format="1">
  <advance width="1061"/>
  <unicode hex="004A"/>
  <outline>
    <contour>
      <point x="395" y="-24" type="curve" smooth="yes"/>
      <point x="217" y="-24"/>
      <point x="101" y="22"/>
      <point x="34" y="62" type="curve"/>
      <point x="94" y="304" type="line"/>
      <point x="94" y="304"/>
      <point x="220" y="233"/>
      <point x="366" y="233" type="curve" smooth="yes"/>
      <point x="516" y="233"/>
      <point x="582" y="335"/>
      <point x="582" y="566" type="curve" smooth="yes"/>
      <point x="582" y="1250" type="line"/>
      <point x="300" y="1250" type="line"/>
      <point x="300" y="1481" type="line"/>
      <point x="905" y="1481" type="line"/>
      <point x="905" y="443" type="line" smooth="yes"/>
      <point x="905" y="153"/>
      <point x="721" y="-24"/>
    </contour>
  </outline>
</glyph>
<glyph name="K" format="1">
  <advance width="1435"/>
  <unicode hex="004B"/>
  <outline>
    <contour>
      <point x="156" y="0" type="line"/>
      <point x="156" y="1481" type="line"/>
      <point x="478" y="1481" type="line"/>
      <point x="478" y="789" type="line"/>
      <point x="479" y="789" type="line"/>
      <point x="656" y="1012" type="line"/>
      <point x="1012" y="1481" type="line"/>
      <point x="1392" y="1481" type="line"/>
      <point x="893" y="833" type="line"/>
      <point x="1421" y="0" type="line"/>
      <point x="1036" y="0" type="line"/>
      <point x="717" y="545" type="line"/>
      <point x="642" y="671" type="line"/>
      <point x="478" y="478" type="line"/>
      <point x="478" y="0" type="line"/>
    </contour>
  </outline>
</glyph>
<glyph name="L" format="1">
  <advance width="1148"/>
  <unicode hex="004C"/>
  <outline>
    <contour>
      <point x="156" y="0" type="line"/>
      <point x="156" y="1481" type="line"/>
      <point x="479" y="1481" type="line"/>
      <point x="479" y="229" type="line"/>
      <point x="1114" y="229" type="line"/>
      <point x="1114" y="0" type="line"/>
    </contour>
  </outline>
</glyph>
<glyph name="M" format="1">
  <advance width="1780"/>
  <unicode hex="004D"/>
  <outline>
    <contour>
      <point x="156" y="0" type="line"/>
      <point x="156" y="1481" type="line"/>
      <point x="476" y="1481" type="line"/>
      <point x="893" y="617" type="line"/>
      <point x="1311" y="1481" type="line"/>
      <point x="1625" y="1481" type="line"/>
      <point x="1625" y="0" type="line"/>
      <point x="1313" y="0" type="line"/>
      <point x="1313" y="798" type="line" smooth="yes"/>
      <point x="1313" y="832"/>
      <point x="1318" y="999"/>
      <point x="1318" y="999" type="curve"/>
      <point x="1010" y="324" type="line"/>
      <point x="759" y="324" type="line"/>
      <point x="453" y="999" type="line"/>
      <point x="453" y="999"/>
      <point x="457" y="832"/>
      <point x="457" y="798" type="curve" smooth="yes"/>
      <point x="457" y="0" type="line"/>
    </contour>
  </outline>
</glyph>
<glyph name="N" format="1">
  <advance width="1584"/>
  <unicode hex="004E"/>
  <outline>
    <contour>
      <point x="156" y="0" type="line"/>
      <point x="156" y="1481" type="line"/>
      <point x="475" y="1481" type="line"/>
      <point x="1137" y="526" type="line"/>
      <point x="1125" y="796" type="line"/>
      <point x="1125" y="1481" type="line"/>
      <point x="1429" y="1481" type="line"/>
      <point x="1429" y="0" type="line"/>
      <point x="1153" y="0" type="line"/>
      <point x="448" y="1048" type="line"/>
      <point x="460" y="754" type="line" smooth="yes"/>
      <point x="460" y="0" type="line"/>
    </contour>
  </outline>
</glyph>
<glyph name="O" format="1">
  <advance width="1577"/>
  <unicode hex="004F"/>
  <outline>
    <contour>
      <point x="791" y="233" type="curve" smooth="yes"/>
      <point x="1052" y="233"/>
      <point x="1140" y="452"/>
      <point x="1140" y="740" type="curve" smooth="yes"/>
      <point x="1140" y="1037"/>
      <point x="1050" y="1247"/>
      <point x="791" y="1247" type="curve" smooth="yes"/>
      <point x="527" y="1247"/>
      <point x="438" y="1041"/>
      <point x="438" y="740" type="curve" smooth="yes"/>
      <point x="438" y="441"/>
      <point x="527" y="233"/>
    </contour>
    <contour>
      <point x="790" y="-24" type="curve" smooth="yes"/>
      <point x="330" y="-24"/>
      <point x="109" y="258"/>
      <point x="109" y="740" type="curve" smooth="yes"/>
      <point x="109" y="1225"/>
      <point x="332" y="1504"/>
      <point x="790" y="1504" type="curve" smooth="yes"/>
      <point x="1248" y="1504"/>
      <point x="1468" y="1226"/>
      <point x="1468" y="740" type="curve" smooth="yes"/>
      <point x="1468" y="259"/>
      <point x="1249" y="-24"/>
    </contour>
  </outline>
</glyph>
<glyph name="P" format="1">
  <advance width="1328"/>
  <unicode hex="0050"/>
  <outline>
    <contour>
      <point x="156" y="0" type="line"/>
      <point x="156" y="1481" type="line"/>
      <point x="714" y="1481" type="line" smooth="yes"/>
      <point x="1025" y="1481"/>
      <point x="1265" y="1353"/>
      <point x="1265" y="1012" type="curve" smooth="yes"/>
      <point x="1265" y="715"/>
      <point x="1053" y="533"/>
      <point x="691" y="533" type="curve" smooth="yes"/>
      <point x="479" y="533" type="line"/>
      <point x="479" y="0" type="line"/>
    </contour>
    <contour>
      <point x="479" y="777" type="line"/>
      <point x="562" y="777" type="line" smooth="yes"/>
      <point x="764" y="777"/>
      <point x="937" y="796"/>
      <point x="937" y="1010" type="curve" smooth="yes"/>
      <point x="937" y="1197"/>
      <point x="789" y="1237"/>
      <point x="619" y="1237" type="curve" smooth="yes"/>
      <point x="479" y="1237" type="line"/>
    </contour>
  </outline>
</glyph>
<glyph name="Q" format="1">
  <advance width="1577"/>
  <unicode hex="0051"/>
  <outline>
    <contour>
      <point x="810" y="-24" type="curve" smooth="yes"/>
      <point x="329" y="-24"/>
      <point x="109" y="258"/>
      <point x="109" y="740" type="curve" smooth="yes"/>
      <point x="109" y="1225"/>
      <point x="332" y="1504"/>
      <point x="790" y="1504" type="curve" smooth="yes"/>
      <point x="1248" y="1504"/>
      <point x="1468" y="1226"/>
      <point x="1468" y="740" type="curve" smooth="yes"/>
      <point x="1468" y="366"/>
      <point x="1338" y="108"/>
      <point x="1063" y="17" type="curve"/>
      <point x="1183" y="-335" type="line"/>
      <point x="1002" y="-392" type="line"/>
      <point x="875" y="-22" type="line"/>
      <point x="854" y="-23"/>
      <point x="832" y="-24"/>
    </contour>
    <contour>
      <point x="972" y="270" type="line"/>
      <point x="1108" y="345"/>
      <point x="1140" y="523"/>
      <point x="1140" y="740" type="curve" smooth="yes"/>
      <point x="1140" y="1037"/>
      <point x="1050" y="1248"/>
      <point x="791" y="1248" type="curve" smooth="yes"/>
      <point x="527" y="1248"/>
      <point x="438" y="1041"/>
      <point x="438" y="740" type="curve" smooth="yes"/>
      <point x="438" y="461"/>
      <point x="516" y="235"/>
      <point x="790" y="235" type="curve"/>
      <point x="681" y="563" type="line"/>
      <point x="881" y="563" type="line"/>
    </contour>
  </outline>
</glyph>
<glyph name="R" format="1">
  <advance width="1415"/>
  <unicode hex="0052"/>
  <outline>
    <contour>
      <point x="156" y="0" type="line"/>
      <point x="156" y="1481" type="line"/>
      <point x="631" y="1481" type="line" smooth="yes"/>
      <point x="895" y="1481"/>
      <point x="1292" y="1474"/>
      <point x="1292" y="1064" type="curve" smooth="yes"/>
      <point x="1292" y="849"/>
      <point x="1216" y="727"/>
      <point x="1003" y="648" type="curve"/>
      <point x="1354" y="72" type="line"/>
      <point x="1354" y="0" type="line"/>
      <point x="1021" y="0" type="line"/>
      <point x="687" y="595" type="line"/>
      <point x="478" y="595" type="line"/>
      <point x="478" y="0" type="line"/>
    </contour>
    <contour>
      <point x="478" y="839" type="line"/>
      <point x="656" y="839" type="line" smooth="yes"/>
      <point x="858" y="839"/>
      <point x="957" y="884"/>
      <point x="957" y="1040" type="curve" smooth="yes"/>
      <point x="957" y="1182"/>
      <point x="880" y="1237"/>
      <point x="648" y="1237" type="curve" smooth="yes"/>
      <point x="478" y="1237" type="line"/>
    </contour>
  </outline>
</glyph>
<glyph name="S" format="1">
  <advance width="1325"/>
  <unicode hex="0053"/>
  <outline>
    <contour>
      <point x="632" y="-24" type="curve" smooth="yes"/>
      <point x="400" y="-24"/>
      <point x="233" y="36"/>
      <point x="87" y="125" type="curve"/>
      <point x="133" y="390" type="line"/>
      <point x="185" y="390" type="line"/>
      <point x="316" y="283"/>
      <point x="491" y="233"/>
      <point x="644" y="233" type="curve" smooth="yes"/>
      <point x="791" y="233"/>
      <point x="918" y="284"/>
      <point x="918" y="400" type="curve" smooth="yes"/>
      <point x="918" y="539"/>
      <point x="784" y="569"/>
      <point x="541" y="628" type="curve" smooth="yes"/>
      <point x="235" y="703"/>
      <point x="120" y="802"/>
      <point x="120" y="1047" type="curve" smooth="yes"/>
      <point x="120" y="1316"/>
      <point x="355" y="1504"/>
      <point x="694" y="1504" type="curve" smooth="yes"/>
      <point x="878" y="1504"/>
      <point x="1052" y="1455"/>
      <point x="1190" y="1383" type="curve"/>
      <point x="1149" y="1122" type="line"/>
      <point x="1098" y="1122" type="line"/>
      <point x="982" y="1201"/>
      <point x="833" y="1247"/>
      <point x="683" y="1247" type="curve" smooth="yes"/>
      <point x="521" y="1247"/>
      <point x="436" y="1178"/>
      <point x="436" y="1076" type="curve" smooth="yes"/>
      <point x="436" y="979"/>
      <point x="517" y="931"/>
      <point x="752" y="885" type="curve" smooth="yes"/>
      <point x="1111" y="807"/>
      <point x="1243" y="694"/>
      <point x="1243" y="443" type="curve" smooth="yes"/>
      <point x="1243" y="156"/>
      <point x="999" y="-24"/>
    </contour>
  </outline>
</glyph>
<glyph name="T" format="1">
  <advance width="1191"/>
  <unicode hex="0054"/>
  <outline>
    <contour>
      <point x="434" y="0" type="line"/>
      <point x="434" y="1232" type="line"/>
      <point x="10" y="1232" type="line"/>
      <point x="10" y="1481" type="line"/>
      <point x="1182" y="1481" type="line"/>
      <point x="1182" y="1232" type="line"/>
      <point x="759" y="1232" type="line"/>
      <point x="759" y="0" type="line"/>
    </contour>
  </outline>
</glyph>
<glyph name="U" format="1">
  <advance width="1478"/>
  <unicode hex="0055"/>
  <outline>
    <contour>
      <point x="738" y="-24" type="curve" smooth="yes"/>
      <point x="365" y="-24"/>
      <point x="138" y="168"/>
      <point x="138" y="496" type="curve" smooth="yes"/>
      <point x="138" y="1481" type="line"/>
      <point x="462" y="1481" type="line"/>
      <point x="462" y="516" type="line" smooth="yes"/>
      <point x="462" y="320"/>
      <point x="566" y="233"/>
      <point x="739" y="233" type="curve" smooth="yes"/>
      <point x="906" y="233"/>
      <point x="1017" y="317"/>
      <point x="1017" y="518" type="curve" smooth="yes"/>
      <point x="1017" y="1481" type="line"/>
      <point x="1340" y="1481" type="line"/>
      <point x="1340" y="497" type="line" smooth="yes"/>
      <point x="1340" y="175"/>
      <point x="1127" y="-24"/>
    </contour>
  </outline>
</glyph>
<glyph name="V" format="1">
  <advance width="1346"/>
  <unicode hex="0056"/>
  <outline>
    <contour>
      <point x="513" y="0" type="line"/>
      <point x="-11" y="1481" type="line"/>
      <point x="327" y="1481" type="line"/>
      <point x="616" y="609" type="line"/>
      <point x="677" y="416" type="line"/>
      <point x="679" y="416" type="line"/>
      <point x="738" y="610" type="line" smooth="yes"/>
      <point x="1026" y="1481" type="line"/>
      <point x="1358" y="1481" type="line"/>
      <point x="837" y="0" type="line"/>
    </contour>
  </outline>
</glyph>
<glyph name="W" format="1">
  <advance width="2038"/>
  <unicode hex="0057"/>
  <outline>
    <contour>
      <point x="403" y="0" type="line"/>
      <point x="25" y="1481" type="line"/>
      <point x="352" y="1481" type="line"/>
      <point x="525" y="671" type="line"/>
      <point x="577" y="383" type="line"/>
      <point x="580" y="383" type="line"/>
      <point x="655" y="699" type="line"/>
      <point x="855" y="1481" type="line"/>
      <point x="1194" y="1481" type="line"/>
      <point x="1395" y="667" type="line"/>
      <point x="1460" y="385" type="line"/>
      <point x="1512" y="657" type="line"/>
      <point x="1694" y="1481" type="line"/>
      <point x="2014" y="1481" type="line"/>
      <point x="1634" y="0" type="line"/>
      <point x="1298" y="0" type="line"/>
      <point x="1020" y="1041" type="line"/>
      <point x="735" y="0" type="line"/>
    </contour>
  </outline>
</glyph>
<glyph name="X" format="1">
  <advance width="1375"/>
  <unicode hex="0058"/>
  <outline>
    <contour>
      <point x="-2" y="0" type="line"/>
      <point x="482" y="750" type="line"/>
      <point x="24" y="1481" type="line"/>
      <point x="393" y="1481" type="line"/>
      <point x="598" y="1138" type="line"/>
      <point x="688" y="991" type="line"/>
      <point x="780" y="1135" type="line"/>
      <point x="991" y="1481" type="line"/>
      <point x="1358" y="1481" type="line"/>
      <point x="891" y="755" type="line"/>
      <point x="1369" y="0" type="line"/>
      <point x="995" y="0" type="line"/>
      <point x="777" y="367" type="line"/>
      <point x="682" y="514" type="line"/>
      <point x="587" y="366" type="line"/>
      <point x="363" y="0" type="line"/>
    </contour>
  </outline>
</glyph>
<glyph name="Y" format="1">
  <advance width="1360"/>
  <unicode hex="0059"/>
  <outline>
    <contour>
      <point x="522" y="0" type="line"/>
      <point x="522" y="614" type="line"/>
      <point x="-2" y="1481" type="line"/>
      <point x="350" y="1481" type="line"/>
      <point x="690" y="892" type="line"/>
      <point x="1021" y="1481" type="line"/>
      <point x="1362" y="1481" type="line"/>
      <point x="842" y="626" type="line"/>
      <point x="842" y="0" type="line"/>
    </contour>
  </outline>
</glyph>
<glyph name="Z" format="1">
  <advance width="1204"/>
  <unicode hex="005A"/>
  <outline>
    <contour>
      <point x="77" y="0" type="line"/>
      <point x="77" y="246" type="line"/>
      <point x="726" y="1232" type="line"/>
      <point x="112" y="1232" type="line"/>
      <point x="112" y="1481" type="line"/>
      <point x="1121" y="1481" type="line"/>
      <point x="1121" y="1236" type="line"/>
      <point x="475" y="249" type="line"/>
      <point x="1156" y="249" type="line"/>
      <point x="1156" y="0" type="line"/>
    </contour>
  </outline>
</glyph>
<glyph name="bracketleft" format="1">
  <advance width="792"/>
  <unicode hex="005B"/>
  <outline>
    <contour>
      <point x="128" y="-337" type="line"/>
      <point x="128" y="1481" type="line"/>
      <point x="699" y="1481" type="line"/>
      <point x="699" y="1268" type="line"/>
      <point x="418" y="1268" type="line"/>
      <point x="418" y="-125" type="line"/>
      <point x="699" y="-125" type="line"/>
      <point x="699" y="-337" type="line"/>
    </contour>
  </outline>
</glyph>
<glyph name="backslash" format="1">
  <advance width="1040"/>
  <unicode hex="005C"/>
  <outline>
    <contour>
      <point x="662" y="0" type="line"/>
      <point x="141" y="1481" type="line"/>
      <point x="421" y="1481" type="line"/>
      <point x="943" y="0" type="line"/>
    </contour>
  </outline>
</glyph>
<glyph name="bracketright" format="1">
  <advance width="792"/>
  <unicode hex="005D"/>
  <outline>
    <contour>
      <point x="94" y="-337" type="line"/>
      <point x="94" y="-125" type="line"/>
      <point x="377" y="-125" type="line"/>
      <point x="377" y="1268" type="line"/>
      <point x="94" y="1268" type="line"/>
      <point x="94" y="1481" type="line"/>
      <point x="666" y="1481" type="line"/>
      <point x="666" y="-337" type="line"/>
    </contour>
  </outline>
</glyph>
<glyph name="grave" format="1">
  <advance width="736"/>
  <unicode hex="0060"/>
  <outline>
    <contour>
      <point x="393" y="1160" type="line"/>
      <point x="108" y="1506" type="line"/>
      <point x="410" y="1506" type="line"/>
      <point x="606" y="1160" type="line"/>
    </contour>
  </outline>
</glyph>
<glyph name="a" format="1">
  <advance width="1122"/>
  <unicode hex="0061"/>
  <outline>
    <contour>
      <point x="388" y="-22" type="curve" smooth="yes"/>
      <point x="192" y="-22"/>
      <point x="60" y="115"/>
      <point x="60" y="295" type="curve" smooth="yes"/>
      <point x="60" y="609"/>
      <point x="360" y="649"/>
      <point x="717" y="649" type="curve"/>
      <point x="717" y="779"/>
      <point x="676" y="835"/>
      <point x="508" y="835" type="curve" smooth="yes"/>
      <point x="406" y="835"/>
      <point x="272" y="804"/>
      <point x="193" y="771" type="curve"/>
      <point x="132" y="978" type="line"/>
      <point x="182" y="1010"/>
      <point x="366" y="1059"/>
      <point x="523" y="1059" type="curve" smooth="yes"/>
      <point x="882" y="1059"/>
      <point x="1025" y="935"/>
      <point x="1025" y="693" type="curve" smooth="yes"/>
      <point x="1025" y="0" type="line"/>
      <point x="716" y="0" type="line"/>
      <point x="716" y="210" type="line"/>
      <point x="664" y="78"/>
      <point x="551" y="-22"/>
    </contour>
    <contour>
      <point x="494" y="186" type="curve" smooth="yes"/>
      <point x="610" y="186"/>
      <point x="717" y="260"/>
      <point x="717" y="498" type="curve"/>
      <point x="495" y="484"/>
      <point x="366" y="454"/>
      <point x="366" y="321" type="curve" smooth="yes"/>
      <point x="366" y="240"/>
      <point x="419" y="186"/>
    </contour>
  </outline>
</glyph>
<glyph name="f" format="1">
  <advance width="736"/>
  <unicode hex="0066"/>
  <outline>
    <contour>
      <point x="172" y="0" type="line"/>
      <point x="172" y="835" type="line"/>
      <point x="26" y="835" type="line"/>
      <point x="26" y="1035" type="line"/>
      <point x="172" y="1035" type="line"/>
      <point x="172" y="1076" type="line" smooth="yes"/>
      <point x="172" y="1327"/>
      <point x="290" y="1443"/>
      <point x="557" y="1443" type="curve" smooth="yes"/>
      <point x="631" y="1443"/>
      <point x="696" y="1436"/>
      <point x="751" y="1430" type="curve"/>
      <point x="751" y="1214" type="line"/>
      <point x="714" y="1218"/>
      <point x="660" y="1225"/>
      <point x="617" y="1225" type="curve" smooth="yes"/>
      <point x="522" y="1225"/>
      <point x="472" y="1189"/>
      <point x="472" y="1035" type="curve"/>
      <point x="729" y="1035" type="line"/>
      <point x="729" y="835" type="line"/>
      <point x="481" y="835" type="line"/>
      <point x="481" y="0" type="line"/>
    </contour>
  </outline>
</glyph>
<glyph name="k" format="1">
  <advance width="1160"/>
  <unicode hex="006B"/>
  <outline>
    <contour>
      <point x="118" y="0" type="line"/>
      <point x="118" y="1481" type="line"/>
      <point x="427" y="1481" type="line"/>
      <point x="427" y="624" type="line"/>
      <point x="799" y="1035" type="line"/>
      <point x="1127" y="1035" type="line"/>
      <point x="1127" y="991" type="line"/>
      <point x="777" y="610" type="line"/>
      <point x="1144" y="73" type="line"/>
      <point x="1144" y="0" type="line"/>
      <point x="832" y="0" type="line"/>
      <point x="526" y="467" type="line"/>
      <point x="427" y="366" type="line"/>
      <point x="427" y="0" type="line"/>
    </contour>
  </outline>
</glyph>
<glyph name="l" format="1">
  <advance width="634"/>
  <unicode hex="006C"/>
  <outline>
    <contour>
      <point x="505" y="-2" type="line" smooth="yes"/>
      <point x="112" y="-2"/>
      <point x="120" y="180"/>
      <point x="120" y="354" type="curve" smooth="yes"/>
      <point x="120" y="1481" type="line"/>
      <point x="428" y="1481" type="line"/>
      <point x="428" y="340" type="line" smooth="yes"/>
      <point x="428" y="242"/>
      <point x="473" y="212"/>
      <point x="590" y="212" type="curve"/>
      <point x="590" y="-2" type="line"/>
    </contour>
  </outline>
</glyph>
<glyph name="m" format="1">
  <advance width="1784"/>
  <unicode hex="006D"/>
  <outline>
    <contour>
      <point x="118" y="0" type="line"/>
      <point x="118" y="1035" type="line"/>
      <point x="427" y="1035" type="line"/>
      <point x="427" y="861" type="line"/>
      <point x="499" y="1002"/>
      <point x="628" y="1059"/>
      <point x="756" y="1059" type="curve" smooth="yes"/>
      <point x="871" y="1059"/>
      <point x="975" y="1000"/>
      <point x="1027" y="865" type="curve"/>
      <point x="1106" y="1000"/>
      <point x="1242" y="1059"/>
      <point x="1364" y="1059" type="curve" smooth="yes"/>
      <point x="1544" y="1059"/>
      <point x="1688" y="945"/>
      <point x="1687" y="680" type="curve"/>
      <point x="1687" y="0" type="line"/>
      <point x="1378" y="0" type="line"/>
      <point x="1378" y="573" type="line" smooth="yes"/>
      <point x="1378" y="759"/>
      <point x="1342" y="820"/>
      <point x="1219" y="820" type="curve" smooth="yes"/>
      <point x="1145" y="820"/>
      <point x="1057" y="742"/>
      <point x="1057" y="703" type="curve" smooth="yes"/>
      <point x="1057" y="0" type="line"/>
      <point x="748" y="0" type="line"/>
      <point x="748" y="598" type="line" smooth="yes"/>
      <point x="748" y="764"/>
      <point x="705" y="820"/>
      <point x="590" y="820" type="curve" smooth="yes"/>
      <point x="521" y="820"/>
      <point x="427" y="764"/>
      <point x="427" y="703" type="curve" smooth="yes"/>
      <point x="427" y="0" type="line"/>
    </contour>
  </outline>
</glyph>
<glyph name="n" format="1">
  <advance width="1184"/>
  <unicode hex="006E"/>
  <outline>
    <contour>
      <point x="119" y="0" type="line"/>
      <point x="119" y="1035" type="line"/>
      <point x="428" y="1035" type="line"/>
      <point x="428" y="855" type="line"/>
      <point x="480" y="973"/>
      <point x="618" y="1059"/>
      <point x="763" y="1059" type="curve" smooth="yes"/>
      <point x="922" y="1059"/>
      <point x="1086" y="942"/>
      <point x="1086" y="696" type="curve" smooth="yes"/>
      <point x="1086" y="0" type="line"/>
      <point x="777" y="0" type="line"/>
      <point x="777" y="599" type="line" smooth="yes"/>
      <point x="777" y="769"/>
      <point x="723" y="824"/>
      <point x="608" y="824" type="curve" smooth="yes"/>
      <point x="508" y="824"/>
      <point x="428" y="729"/>
      <point x="428" y="684" type="curve" smooth="yes"/>
      <point x="428" y="0" type="line"/>
    </contour>
  </outline>
</glyph>
<glyph name="p" format="1">
  <advance width="1198"/>
  <unicode hex="0070"/>
  <outline>
    <contour>
      <point x="118" y="-391" type="line"/>
      <point x="118" y="1035" type="line"/>
      <point x="427" y="1035" type="line"/>
      <point x="427" y="898" type="line"/>
      <point x="479" y="990"/>
      <point x="608" y="1059"/>
      <point x="735" y="1059" type="curve" smooth="yes"/>
      <point x="1014" y="1059"/>
      <point x="1119" y="841"/>
      <point x="1119" y="522" type="curve" smooth="yes"/>
      <point x="1119" y="192"/>
      <point x="962" y="-22"/>
      <point x="688" y="-22" type="curve" smooth="yes"/>
      <point x="581" y="-22"/>
      <point x="496" y="9"/>
      <point x="427" y="58" type="curve"/>
      <point x="427" y="-391" type="line"/>
    </contour>
    <contour>
      <point x="585" y="202" type="curve" smooth="yes"/>
      <point x="754" y="202"/>
      <point x="805" y="337"/>
      <point x="805" y="520" type="curve" smooth="yes"/>
      <point x="805" y="707"/>
      <point x="752" y="825"/>
      <point x="596" y="825" type="curve" smooth="yes"/>
      <point x="537" y="825"/>
      <point x="469" y="803"/>
      <point x="427" y="762" type="curve"/>
      <point x="427" y="238" type="line"/>
      <point x="463" y="215"/>
      <point x="523" y="202"/>
    </contour>
  </outline>
</glyph>
<glyph name="q" format="1">
  <advance width="1201"/>
  <unicode hex="0071"/>
  <outline>
    <contour>
      <point x="775" y="-391" type="line"/>
      <point x="775" y="88" type="line"/>
      <point x="699" y="12"/>
      <point x="619" y="-22"/>
      <point x="511" y="-22" type="curve" smooth="yes"/>
      <point x="242" y="-22"/>
      <point x="81" y="195"/>
      <point x="81" y="517" type="curve" smooth="yes"/>
      <point x="81" y="843"/>
      <point x="205" y="1059"/>
      <point x="519" y="1059" type="curve" smooth="yes"/>
      <point x="627" y="1059"/>
      <point x="729" y="1004"/>
      <point x="775" y="925" type="curve"/>
      <point x="775" y="1035" type="line"/>
      <point x="1084" y="1035" type="line"/>
      <point x="1084" y="-391" type="line"/>
    </contour>
    <contour>
      <point x="625" y="202" type="curve" smooth="yes"/>
      <point x="690" y="202"/>
      <point x="751" y="226"/>
      <point x="775" y="257" type="curve"/>
      <point x="775" y="781" type="line"/>
      <point x="731" y="806"/>
      <point x="668" y="826"/>
      <point x="602" y="826" type="curve" smooth="yes"/>
      <point x="447" y="826"/>
      <point x="395" y="703"/>
      <point x="395" y="515" type="curve" smooth="yes"/>
      <point x="395" y="317"/>
      <point x="466" y="202"/>
    </contour>
  </outline>
</glyph>
<glyph name="t" format="1">
  <advance width="826"/>
  <unicode hex="0074"/>
  <outline>
    <contour>
      <point x="522" y="-13" type="curve" smooth="yes"/>
      <point x="273" y="-13"/>
      <point x="167" y="90"/>
      <point x="167" y="328" type="curve" smooth="yes"/>
      <point x="167" y="830" type="line"/>
      <point x="43" y="830" type="line"/>
      <point x="43" y="1035" type="line"/>
      <point x="167" y="1035" type="line"/>
      <point x="167" y="1291" type="line"/>
      <point x="476" y="1360" type="line"/>
      <point x="476" y="1035" type="line"/>
      <point x="756" y="1035" type="line"/>
      <point x="756" y="830" type="line"/>
      <point x="476" y="830" type="line"/>
      <point x="476" y="353" type="line" smooth="yes"/>
      <point x="476" y="240"/>
      <point x="545" y="211"/>
      <point x="629" y="211" type="curve" smooth="yes"/>
      <point x="680" y="211"/>
      <point x="730" y="219"/>
      <point x="756" y="224" type="curve"/>
      <point x="756" y="5" type="line"/>
      <point x="690" y="-8"/>
      <point x="632" y="-13"/>
    </contour>
  </outline>
</glyph>
<glyph name="v" format="1">
  <advance width="1062"/>
  <unicode hex="0076"/>
  <outline>
    <contour>
      <point x="368" y="0" type="line"/>
      <point x="-17" y="1035" type="line"/>
      <point x="307" y="1035" type="line"/>
      <point x="491" y="479" type="line"/>
      <point x="536" y="327" type="line"/>
      <point x="538" y="327" type="line"/>
      <point x="583" y="479" type="line" smooth="yes"/>
      <point x="758" y="1035" type="line"/>
      <point x="1080" y="1035" type="line"/>
      <point x="695" y="0" type="line"/>
    </contour>
  </outline>
</glyph>
<glyph name="y" format="1">
  <advance width="1087"/>
  <unicode hex="0079"/>
  <outline>
    <contour>
      <point x="226" y="-392" type="line"/>
      <point x="286" y="-275"/>
      <point x="344" y="-149"/>
      <point x="399" y="7" type="curve"/>
      <point x="0" y="1035" type="line"/>
      <point x="324" y="1035" type="line"/>
      <point x="561" y="353" type="line"/>
      <point x="780" y="1035" type="line"/>
      <point x="1106" y="1035" type="line"/>
      <point x="681" y="-103" type="line"/>
      <point x="634" y="-235"/>
      <point x="548" y="-393"/>
      <point x="547" y="-392" type="curve"/>
    </contour>
  </outline>
</glyph>
<glyph name="z" format="1">
  <advance width="995"/>
  <unicode hex="007A"/>
  <outline>
    <contour>
      <point x="70" y="0" type="line"/>
      <point x="70" y="209" type="line"/>
      <point x="557" y="811" type="line"/>
      <point x="96" y="811" type="line"/>
      <point x="96" y="1035" type="line"/>
      <point x="918" y="1035" type="line"/>
      <point x="918" y="831" type="line"/>
      <point x="436" y="229" type="line"/>
      <point x="925" y="229" type="line"/>
      <point x="925" y="0" type="line"/>
    </contour>
  </outline>
</glyph>
<glyph name="braceleft" format="1">
  <advance width="1030"/>
  <unicode hex="007B"/>
  <outline>
    <contour>
      <point x="848" y="-316" type="line" smooth="yes"/>
      <point x="535" y="-316"/>
      <point x="351" y="-270"/>
      <point x="351" y="49" type="curve" smooth="yes"/>
      <point x="351" y="185" type="line" smooth="yes"/>
      <point x="351" y="402"/>
      <point x="261" y="482"/>
      <point x="19" y="482" type="curve"/>
      <point x="19" y="705" type="line"/>
      <point x="261" y="705"/>
      <point x="351" y="777"/>
      <point x="351" y="1003" type="curve" smooth="yes"/>
      <point x="351" y="1180" type="line" smooth="yes"/>
      <point x="351" y="1463"/>
      <point x="547" y="1504"/>
      <point x="822" y="1504" type="curve" smooth="yes"/>
      <point x="963" y="1504" type="line"/>
      <point x="963" y="1301" type="line"/>
      <point x="877" y="1301" type="line" smooth="yes"/>
      <point x="707" y="1301"/>
      <point x="646" y="1267"/>
      <point x="646" y="1068" type="curve" smooth="yes"/>
      <point x="646" y="1009" type="line" smooth="yes"/>
      <point x="646" y="768"/>
      <point x="553" y="657"/>
      <point x="382" y="602" type="curve"/>
      <point x="382" y="586" type="line"/>
      <point x="522" y="542"/>
      <point x="646" y="439"/>
      <point x="646" y="231" type="curve" smooth="yes"/>
      <point x="646" y="153" type="line" smooth="yes"/>
      <point x="646" y="-82"/>
      <point x="689" y="-113"/>
      <point x="868" y="-113" type="curve" smooth="yes"/>
      <point x="963" y="-113" type="line"/>
      <point x="963" y="-315" type="line"/>
    </contour>
  </outline>
</glyph>
<glyph name="bar" format="1">
  <advance width="951"/>
  <unicode hex="007C"/>
  <outline>
    <contour>
      <point x="342" y="-425" type="line"/>
      <point x="342" y="1481" type="line"/>
      <point x="611" y="1481" type="line"/>
      <point x="611" y="-425" type="line"/>
    </contour>
  </outline>
</glyph>
<glyph name="exclamdown" format="1">
  <advance width="605"/>
  <unicode hex="00A1"/>
  <outline>
    <contour>
      <point x="350" y="1058" type="curve" smooth="yes"/>
      <point x="456" y="1058"/>
      <point x="544" y="970"/>
      <point x="544" y="864" type="curve" smooth="yes"/>
      <point x="544" y="756"/>
      <point x="456" y="669"/>
      <point x="350" y="669" type="curve" smooth="yes"/>
      <point x="242" y="669"/>
      <point x="155" y="756"/>
      <point x="155" y="864" type="curve" smooth="yes"/>
      <point x="155" y="970"/>
      <point x="242" y="1058"/>
    </contour>
    <contour>
      <point x="432" y="517" type="line"/>
      <point x="535" y="-441" type="line"/>
      <point x="165" y="-441" type="line"/>
      <point x="265" y="517" type="line"/>
    </contour>
  </outline>
</glyph>
<glyph name="sterling" format="1">
  <advance width="1224"/>
  <unicode hex="00A3"/>
  <outline>
    <contour>
      <point x="832.726" y="-10" type="curve" smooth="yes"/>
      <point x="674.726" y="-10"/>
      <point x="464.726" y="11"/>
      <point x="301.726" y="11" type="curve" smooth="yes"/>
      <point x="233.726" y="11"/>
      <point x="161.726" y="5"/>
      <point x="88.7256" y="-6" type="curve"/>
      <point x="88.7256" y="233" type="line"/>
      <point x="153.726" y="237"/>
      <point x="209.726" y="245"/>
      <point x="248.726" y="252" type="curve"/>
      <point x="278.547" y="328.211"/>
      <point x="293.287" y="407.913"/>
      <point x="293.287" y="496.667" type="curve" smooth="yes"/>
      <point x="293.287" y="533.427"/>
      <point x="290.758" y="571.74"/>
      <point x="285.726" y="612" type="curve"/>
      <point x="98.7256" y="612" type="line"/>
      <point x="98.7256" y="810" type="line"/>
      <point x="261.726" y="810" type="line"/>
      <point x="244.152" y="892.316"/>
      <point x="234.452" y="971.222"/>
      <point x="234.452" y="1044.4" type="curve" smooth="yes"/>
      <point x="234.452" y="1312.71"/>
      <point x="364.855" y="1504"/>
      <point x="715.726" y="1504" type="curve" smooth="yes"/>
      <point x="864.726" y="1504"/>
      <point x="1017.73" y="1456"/>
      <point x="1074.73" y="1400" type="curve"/>
      <point x="1091.73" y="1119" type="line"/>
      <point x="1022.73" y="1119" type="line"/>
      <point x="962.726" y="1192"/>
      <point x="855.726" y="1247"/>
      <point x="758.726" y="1247" type="curve" smooth="yes"/>
      <point x="608.196" y="1247"/>
      <point x="565.954" y="1145.47"/>
      <point x="565.954" y="1024.43" type="curve" smooth="yes"/>
      <point x="565.954" y="954.179"/>
      <point x="580.181" y="877.361"/>
      <point x="595.726" y="810" type="curve"/>
      <point x="973.726" y="810" type="line"/>
      <point x="973.726" y="612" type="line"/>
      <point x="615.726" y="612" type="line"/>
      <point x="616.865" y="599.461"/>
      <point x="617.421" y="586.522"/>
      <point x="617.421" y="573.314" type="curve" smooth="yes"/>
      <point x="617.421" y="459.982"/>
      <point x="576.51" y="326.903"/>
      <point x="512.726" y="258" type="curve"/>
      <point x="599.726" y="256"/>
      <point x="708.425" y="233"/>
      <point x="819.726" y="233" type="curve" smooth="yes"/>
      <point x="952.425" y="233"/>
      <point x="1023.73" y="253"/>
      <point x="1117.73" y="271" type="curve"/>
      <point x="1165.73" y="33" type="line"/>
      <point x="1058.73" y="3"/>
      <point x="937.726" y="-10"/>
    </contour>
  </outline>
</glyph>
<glyph name="yen" format="1">
  <advance width="1312"/>
  <unicode hex="00A5"/>
  <outline>
    <contour>
      <point x="522" y="0" type="line"/>
      <point x="522" y="389" type="line"/>
      <point x="135" y="389" type="line"/>
      <point x="135" y="575" type="line"/>
      <point x="521" y="575" type="line"/>
      <point x="469" y="704" type="line"/>
      <point x="135" y="704" type="line"/>
      <point x="135" y="888" type="line"/>
      <point x="358" y="888" type="line"/>
      <point x="-12" y="1481" type="line"/>
      <point x="378" y="1481" type="line"/>
      <point x="443" y="1352"/>
      <point x="632" y="1045"/>
      <point x="700" y="918" type="curve"/>
      <point x="763" y="1047"/>
      <point x="950" y="1352"/>
      <point x="1013" y="1481" type="curve"/>
      <point x="1393" y="1481" type="line"/>
      <point x="1019" y="888" type="line"/>
      <point x="1236" y="888" type="line"/>
      <point x="1236" y="704" type="line"/>
      <point x="911" y="704" type="line"/>
      <point x="862" y="575" type="line"/>
      <point x="1236" y="575" type="line"/>
      <point x="1236" y="389" type="line"/>
      <point x="862" y="389" type="line"/>
      <point x="862" y="0" type="line"/>
    </contour>
  </outline>
</glyph>
<glyph name="brokenbar" format="1">
  <advance width="399"/>
  <unicode hex="00A6"/>
  <outline>
    <contour>
      <point x="99" y="-338" type="line"/>
      <point x="99" y="338" type="line"/>
      <point x="301" y="338" type="line"/>
      <point x="301" y="-338" type="line"/>
    </contour>
    <contour>
      <point x="99" y="628" type="line"/>
      <point x="99" y="1303" type="line"/>
      <point x="301" y="1303" type="line"/>
      <point x="301" y="628" type="line"/>
    </contour>
  </outline>
</glyph>
<glyph name="dieresis" format="1">
  <advance width="799"/>
  <unicode hex="00A8"/>
  <outline>
    <contour>
      <point x="99" y="1185" type="line"/>
      <point x="99" y="1439" type="line"/>
      <point x="329" y="1439" type="line"/>
      <point x="329" y="1185" type="line"/>
    </contour>
    <contour>
      <point x="468" y="1185" type="line"/>
      <point x="468" y="1439" type="line"/>
      <point x="698" y="1439" type="line"/>
      <point x="698" y="1185" type="line"/>
    </contour>
  </outline>
</glyph>
<glyph name="copyright" format="1">
  <advance width="1817"/>
  <unicode hex="00A9"/>
  <outline>
    <contour>
      <point x="941" y="231" type="curve" smooth="yes"/>
      <point x="704" y="231"/>
      <point x="494" y="391"/>
      <point x="494" y="675" type="curve" smooth="yes"/>
      <point x="494" y="946"/>
      <point x="682" y="1121"/>
      <point x="938" y="1121" type="curve" smooth="yes"/>
      <point x="1069" y="1121"/>
      <point x="1168" y="1073"/>
      <point x="1249" y="1016" type="curve"/>
      <point x="1196" y="899" type="line"/>
      <point x="1175" y="912"/>
      <point x="1088" y="988"/>
      <point x="955" y="988" type="curve" smooth="yes"/>
      <point x="785" y="988"/>
      <point x="668" y="858"/>
      <point x="668" y="675" type="curve" smooth="yes"/>
      <point x="668" y="496"/>
      <point x="769" y="365"/>
      <point x="951" y="365" type="curve" smooth="yes"/>
      <point x="1084" y="365"/>
      <point x="1177" y="436"/>
      <point x="1177" y="436" type="curve"/>
      <point x="1223" y="316" type="line"/>
      <point x="1175" y="276"/>
      <point x="1054" y="231"/>
    </contour>
    <contour>
      <point x="910" y="36" type="curve" smooth="yes"/>
      <point x="1286" y="36"/>
      <point x="1568" y="306"/>
      <point x="1568" y="672" type="curve" smooth="yes"/>
      <point x="1568" y="1042"/>
      <point x="1274" y="1303"/>
      <point x="910" y="1303" type="curve" smooth="yes"/>
      <point x="534" y="1303"/>
      <point x="259" y="1026"/>
      <point x="259" y="669" type="curve" smooth="yes"/>
      <point x="259" y="298"/>
      <point x="550" y="36"/>
    </contour>
    <contour>
      <point x="910" y="-117" type="curve" smooth="yes"/>
      <point x="464" y="-117"/>
      <point x="81" y="203"/>
      <point x="81" y="669" type="curve" smooth="yes"/>
      <point x="81" y="1112"/>
      <point x="446" y="1455"/>
      <point x="910" y="1455" type="curve" smooth="yes"/>
      <point x="1362" y="1455"/>
      <point x="1738" y="1117"/>
      <point x="1738" y="669" type="curve" smooth="yes"/>
      <point x="1738" y="227"/>
      <point x="1374" y="-117"/>
    </contour>
  </outline>
</glyph>
<glyph name="uni00AD" format="1">
  <advance width="778"/>
  <unicode hex="00AD"/>
  <outline>
    <contour>
      <point x="99" y="436" type="line"/>
      <point x="99" y="634" type="line"/>
      <point x="680" y="634" type="line"/>
      <point x="680" y="436" type="line"/>
    </contour>
  </outline>
</glyph>
<glyph name="paragraph" format="1">
  <advance width="1230"/>
  <unicode hex="00B6"/>
  <outline>
    <contour>
      <point x="587" y="-270" type="line"/>
      <point x="587" y="691" type="line"/>
      <point x="255" y="695"/>
      <point x="61" y="842"/>
      <point x="61" y="1088" type="curve" smooth="yes"/>
      <point x="61" y="1328"/>
      <point x="239" y="1481"/>
      <point x="609" y="1481" type="curve" smooth="yes"/>
      <point x="1102" y="1481" type="line"/>
      <point x="1102" y="-270" type="line"/>
      <point x="915" y="-270" type="line"/>
      <point x="915" y="1325" type="line"/>
      <point x="781" y="1325" type="line"/>
      <point x="781" y="-270" type="line"/>
    </contour>
  </outline>
</glyph>
<glyph name="cedilla" format="1">
  <advance width="840"/>
  <unicode hex="00B8"/>
  <outline>
    <contour>
      <point x="361" y="-512" type="curve" smooth="yes"/>
      <point x="310" y="-512"/>
      <point x="220" y="-493"/>
      <point x="169" y="-469" type="curve"/>
      <point x="197" y="-341" type="line"/>
      <point x="259" y="-341" type="line" smooth="yes"/>
      <point x="275" y="-366"/>
      <point x="322" y="-385"/>
      <point x="363" y="-385" type="curve" smooth="yes"/>
      <point x="450" y="-385"/>
      <point x="500" y="-337"/>
      <point x="500" y="-280" type="curve" smooth="yes"/>
      <point x="500" y="-229"/>
      <point x="450" y="-190"/>
      <point x="386" y="-190" type="curve" smooth="yes"/>
      <point x="373" y="-190"/>
      <point x="361" y="-192"/>
      <point x="346" y="-195" type="curve"/>
      <point x="331" y="-191"/>
      <point x="313" y="-187"/>
      <point x="297" y="-184" type="curve"/>
      <point x="363" y="2" type="line"/>
      <point x="467" y="2" type="line"/>
      <point x="427" y="-100" type="line"/>
      <point x="605" y="-101"/>
      <point x="665" y="-190"/>
      <point x="665" y="-279" type="curve" smooth="yes"/>
      <point x="665" y="-403"/>
      <point x="557" y="-512"/>
    </contour>
  </outline>
</glyph>
<glyph name="guillemotright" format="1">
  <advance width="1045"/>
  <unicode hex="00BB"/>
  <outline>
    <contour>
      <point x="117" y="135" type="line"/>
      <point x="117" y="412" type="line"/>
      <point x="308" y="596" type="line"/>
      <point x="308" y="596"/>
      <point x="139" y="752"/>
      <point x="117" y="770" type="curve"/>
      <point x="117" y="1052" type="line"/>
      <point x="541" y="660" type="line"/>
      <point x="541" y="529" type="line"/>
    </contour>
    <contour>
      <point x="541" y="135" type="line"/>
      <point x="541" y="412" type="line"/>
      <point x="732" y="596" type="line"/>
      <point x="732" y="596"/>
      <point x="563" y="752"/>
      <point x="541" y="770" type="curve"/>
      <point x="541" y="1052" type="line"/>
      <point x="966" y="660" type="line"/>
      <point x="966" y="529" type="line"/>
    </contour>
  </outline>
</glyph>
<glyph name="onequarter" format="1">
  <advance width="1513"/>
  <unicode hex="00BC"/>
  <outline>
    <contour>
      <point x="1187" y="0" type="line"/>
      <point x="1187" y="121" type="line"/>
      <point x="821" y="121" type="line"/>
      <point x="821" y="241" type="line"/>
      <point x="1121" y="819" type="line"/>
      <point x="1366" y="819" type="line"/>
      <point x="1366" y="241" type="line"/>
      <point x="1447" y="241" type="line"/>
      <point x="1447" y="121" type="line"/>
      <point x="1366" y="121" type="line"/>
      <point x="1366" y="0" type="line"/>
    </contour>
    <contour>
      <point x="321" y="0" type="line"/>
      <point x="1133" y="1481" type="line"/>
      <point x="1262" y="1481" type="line"/>
      <point x="448" y="0" type="line"/>
    </contour>
    <contour>
      <point x="971" y="241" type="line"/>
      <point x="1187" y="241" type="line"/>
      <point x="1187" y="669" type="line"/>
    </contour>
    <contour>
      <point x="84" y="657" type="line"/>
      <point x="84" y="795" type="line"/>
      <point x="211" y="795" type="line"/>
      <point x="211" y="1298" type="line"/>
      <point x="51" y="1265" type="line"/>
      <point x="51" y="1379" type="line"/>
      <point x="144" y="1393"/>
      <point x="198" y="1421"/>
      <point x="216" y="1481" type="curve"/>
      <point x="396" y="1481" type="line"/>
      <point x="396" y="795" type="line"/>
      <point x="521" y="795" type="line"/>
      <point x="521" y="657" type="line"/>
    </contour>
  </outline>
</glyph>
<glyph name="threequarters" format="1">
  <advance width="1528"/>
  <unicode hex="00BE"/>
  <outline>
    <contour>
      <point x="1202" y="0" type="line"/>
      <point x="1202" y="121" type="line"/>
      <point x="837" y="121" type="line"/>
      <point x="837" y="241" type="line"/>
      <point x="1136" y="819" type="line"/>
      <point x="1381" y="819" type="line"/>
      <point x="1381" y="241" type="line"/>
      <point x="1462" y="241" type="line"/>
      <point x="1462" y="121" type="line"/>
      <point x="1381" y="121" type="line"/>
      <point x="1381" y="0" type="line"/>
    </contour>
    <contour>
      <point x="336" y="0" type="line"/>
      <point x="1149" y="1481" type="line"/>
      <point x="1277" y="1481" type="line"/>
      <point x="463" y="0" type="line"/>
    </contour>
    <contour>
      <point x="987" y="241" type="line"/>
      <point x="1202" y="241" type="line"/>
      <point x="1202" y="669" type="line"/>
    </contour>
    <contour>
      <point x="333.7" y="642" type="curve" smooth="yes"/>
      <point x="209.7" y="642"/>
      <point x="130.7" y="672"/>
      <point x="80.7002" y="707" type="curve"/>
      <point x="80.7002" y="857" type="line"/>
      <point x="112.7" y="857" type="line"/>
      <point x="143.7" y="826"/>
      <point x="200.7" y="784"/>
      <point x="298.7" y="783" type="curve" smooth="yes"/>
      <point x="387.7" y="782"/>
      <point x="473.7" y="810"/>
      <point x="473.7" y="909" type="curve" smooth="yes"/>
      <point x="473.7" y="980"/>
      <point x="428.7" y="1027"/>
      <point x="312.7" y="1027" type="curve" smooth="yes"/>
      <point x="238.7" y="1027" type="line"/>
      <point x="238.7" y="1142" type="line"/>
      <point x="281.7" y="1142" type="line" smooth="yes"/>
      <point x="389.7" y="1142"/>
      <point x="445.7" y="1169"/>
      <point x="445.7" y="1246" type="curve" smooth="yes"/>
      <point x="445.7" y="1312"/>
      <point x="373.7" y="1339"/>
      <point x="307.7" y="1339" type="curve" smooth="yes"/>
      <point x="222.7" y="1339"/>
      <point x="154.7" y="1297"/>
      <point x="119.7" y="1264" type="curve"/>
      <point x="80.7002" y="1264" type="line"/>
      <point x="80.7002" y="1412" type="line"/>
      <point x="130.7" y="1448"/>
      <point x="237.7" y="1481"/>
      <point x="333.7" y="1481" type="curve" smooth="yes"/>
      <point x="530.7" y="1481"/>
      <point x="624.7" y="1395"/>
      <point x="630.7" y="1278" type="curve" smooth="yes"/>
      <point x="635.7" y="1165"/>
      <point x="574.7" y="1113"/>
      <point x="504.7" y="1082" type="curve"/>
      <point x="577.7" y="1060"/>
      <point x="658.7" y="1002"/>
      <point x="658.7" y="896" type="curve" smooth="yes"/>
      <point x="658.7" y="746"/>
      <point x="540.7" y="642"/>
    </contour>
  </outline>
</glyph>
<glyph name="questiondown" format="1">
  <advance width="1123"/>
  <unicode hex="00BF"/>
  <outline>
    <contour>
      <point x="597" y="530" type="curve"/>
      <point x="763" y="513" type="line"/>
      <point x="615" y="330"/>
      <point x="480" y="153"/>
      <point x="480" y="7" type="curve" smooth="yes"/>
      <point x="480" y="-134"/>
      <point x="576" y="-198"/>
      <point x="691" y="-198" type="curve" smooth="yes"/>
      <point x="822" y="-198"/>
      <point x="982" y="-114"/>
      <point x="1035" y="-65" type="curve"/>
      <point x="1035" y="-328" type="line"/>
      <point x="973" y="-364"/>
      <point x="822" y="-455"/>
      <point x="638" y="-455" type="curve" smooth="yes"/>
      <point x="332" y="-455"/>
      <point x="152" y="-289"/>
      <point x="152" y="-68" type="curve" smooth="yes"/>
      <point x="152" y="220"/>
      <point x="403" y="382"/>
    </contour>
    <contour>
      <point x="698" y="1067" type="curve" smooth="yes"/>
      <point x="811" y="1067"/>
      <point x="901" y="977"/>
      <point x="901" y="864" type="curve" smooth="yes"/>
      <point x="901" y="752"/>
      <point x="811" y="660"/>
      <point x="698" y="660" type="curve" smooth="yes"/>
      <point x="585" y="660"/>
      <point x="494" y="752"/>
      <point x="494" y="864" type="curve" smooth="yes"/>
      <point x="494" y="977"/>
      <point x="585" y="1067"/>
    </contour>
  </outline>
</glyph>
<glyph name="AE" format="1">
  <advance width="1935"/>
  <unicode hex="00C6"/>
  <outline>
    <contour>
      <point x="-1" y="0" type="line"/>
      <point x="667" y="1421" type="line"/>
      <point x="1860" y="1421" type="line"/>
      <point x="1860" y="1177" type="line"/>
      <point x="1247" y="1177" type="line"/>
      <point x="1247" y="860" type="line"/>
      <point x="1779" y="860" type="line"/>
      <point x="1779" y="619" type="line"/>
      <point x="1247" y="619" type="line"/>
      <point x="1247" y="244" type="line"/>
      <point x="1859" y="244" type="line"/>
      <point x="1859" y="0" type="line"/>
      <point x="920" y="0" type="line"/>
      <point x="920" y="322" type="line"/>
      <point x="485" y="322" type="line"/>
      <point x="338" y="0" type="line"/>
    </contour>
    <contour>
      <point x="587" y="563" type="line"/>
      <point x="920" y="563" type="line"/>
      <point x="920" y="1187" type="line"/>
      <point x="876" y="1187" type="line"/>
    </contour>
  </outline>
</glyph>
<glyph name="Eth" format="1">
  <advance width="1514"/>
  <unicode hex="00D0"/>
  <outline>
    <contour>
      <point x="0" y="658" type="line"/>
      <point x="0" y="852" type="line"/>
      <point x="156" y="852" type="line"/>
      <point x="156" y="1481" type="line"/>
      <point x="596" y="1481" type="line" smooth="yes"/>
      <point x="1112" y="1481"/>
      <point x="1405" y="1281"/>
      <point x="1405" y="739" type="curve" smooth="yes"/>
      <point x="1405" y="192"/>
      <point x="1101" y="0"/>
      <point x="594" y="0" type="curve" smooth="yes"/>
      <point x="156" y="0" type="line"/>
      <point x="156" y="658" type="line"/>
    </contour>
    <contour>
      <point x="479" y="249" type="line"/>
      <point x="632" y="249" type="line" smooth="yes"/>
      <point x="942" y="249"/>
      <point x="1077" y="384"/>
      <point x="1077" y="738" type="curve" smooth="yes"/>
      <point x="1077" y="1069"/>
      <point x="927" y="1232"/>
      <point x="680" y="1232" type="curve" smooth="yes"/>
      <point x="479" y="1232" type="line"/>
      <point x="479" y="852" type="line"/>
      <point x="704" y="852" type="line"/>
      <point x="704" y="658" type="line"/>
      <point x="479" y="658" type="line"/>
    </contour>
  </outline>
</glyph>
<glyph name="multiply" format="1">
  <advance width="1123"/>
  <unicode hex="00D7"/>
  <outline>
    <contour>
      <point x="218" y="41" type="line"/>
      <point x="113" y="148" type="line"/>
      <point x="459" y="489" type="line"/>
      <point x="113" y="835" type="line"/>
      <point x="218" y="943" type="line"/>
      <point x="563" y="596" type="line"/>
      <point x="905" y="943" type="line"/>
      <point x="1014" y="835" type="line"/>
      <point x="667" y="489" type="line"/>
      <point x="1014" y="148" type="line"/>
      <point x="905" y="41" type="line"/>
      <point x="563" y="387" type="line"/>
    </contour>
  </outline>
</glyph>
<glyph name="Oslash" format="1">
  <advance width="1523"/>
  <unicode hex="00D8"/>
  <outline>
    <contour>
      <point x="764" y="-24" type="curve" smooth="yes"/>
      <point x="623" y="-24"/>
      <point x="506" y="4"/>
      <point x="409" y="56" type="curve"/>
      <point x="360" y="-16" type="line"/>
      <point x="167" y="-16" type="line"/>
      <point x="279" y="149" type="line"/>
      <point x="146" y="278"/>
      <point x="79" y="480"/>
      <point x="79" y="740" type="curve" smooth="yes"/>
      <point x="79" y="1225"/>
      <point x="306" y="1504"/>
      <point x="764" y="1504" type="curve" smooth="yes"/>
      <point x="911" y="1504"/>
      <point x="1032" y="1475"/>
      <point x="1131" y="1421" type="curve"/>
      <point x="1182" y="1497" type="line"/>
      <point x="1379" y="1497" type="line"/>
      <point x="1260" y="1322" type="line"/>
      <point x="1385" y="1194"/>
      <point x="1447" y="995"/>
      <point x="1447" y="740" type="curve" smooth="yes"/>
      <point x="1447" y="259"/>
      <point x="1224" y="-24"/>
    </contour>
    <contour>
      <point x="469" y="439" type="curve"/>
      <point x="970" y="1177" type="line"/>
      <point x="920" y="1221"/>
      <point x="853" y="1247"/>
      <point x="765" y="1247" type="curve" smooth="yes"/>
      <point x="502" y="1247"/>
      <point x="428" y="1041"/>
      <point x="428" y="740" type="curve" smooth="yes"/>
      <point x="428" y="624"/>
      <point x="440" y="521"/>
    </contour>
    <contour>
      <point x="765" y="233" type="curve" smooth="yes"/>
      <point x="1027" y="233"/>
      <point x="1099" y="452"/>
      <point x="1099" y="740" type="curve" smooth="yes"/>
      <point x="1099" y="845"/>
      <point x="1087" y="943"/>
      <point x="1062" y="1022" type="curve"/>
      <point x="567" y="293" type="line"/>
      <point x="617" y="254"/>
      <point x="681" y="233"/>
    </contour>
  </outline>
</glyph>
<glyph name="eth" format="1">
  <advance width="1244"/>
  <unicode hex="00F0"/>
  <outline>
    <contour>
      <point x="618" y="-22" type="curve" smooth="yes"/>
      <point x="293" y="-22"/>
      <point x="80" y="169"/>
      <point x="80" y="487" type="curve" smooth="yes"/>
      <point x="80" y="788.584"/>
      <point x="301.044" y="941.935"/>
      <point x="518.728" y="941.935" type="curve" smooth="yes"/>
      <point x="628.636" y="941.935"/>
      <point x="737.687" y="902.843"/>
      <point x="817" y="824" type="curve"/>
      <point x="789.6" y="999"/>
      <point x="702" y="1084"/>
      <point x="621" y="1146" type="curve"/>
      <point x="521" y="1008" type="line"/>
      <point x="414" y="1079" type="line"/>
      <point x="508" y="1209" type="line"/>
      <point x="432" y="1241"/>
      <point x="344" y="1259"/>
      <point x="240" y="1269" type="curve"/>
      <point x="281" y="1481" type="line"/>
      <point x="422" y="1475"/>
      <point x="546" y="1448"/>
      <point x="653" y="1402" type="curve"/>
      <point x="748" y="1526" type="line"/>
      <point x="854" y="1458" type="line"/>
      <point x="768" y="1344" type="line"/>
      <point x="1025" y="1191"/>
      <point x="1158" y="917"/>
      <point x="1158" y="547" type="curve" smooth="yes"/>
      <point x="1158" y="183"/>
      <point x="947" y="-22"/>
    </contour>
    <contour>
      <point x="834" y="464" type="curve" smooth="yes"/>
      <point x="834" y="655"/>
      <point x="719.128" y="727.46"/>
      <point x="609.108" y="727.46" type="curve" smooth="yes"/>
      <point x="508.005" y="727.46"/>
      <point x="411" y="648.439"/>
      <point x="411" y="477" type="curve" smooth="yes"/>
      <point x="411" y="287.761"/>
      <point x="519.668" y="201.161"/>
      <point x="623.318" y="201.161" type="curve" smooth="yes"/>
      <point x="731.088" y="201.161"/>
      <point x="834" y="274"/>
    </contour>
  </outline>
</glyph>
<glyph name="divide" format="1">
  <advance width="1460"/>
  <unicode hex="00F7"/>
  <outline>
    <contour>
      <point x="729" y="0" type="curve" smooth="yes"/>
      <point x="618" y="0"/>
      <point x="528" y="90"/>
      <point x="528" y="202" type="curve" smooth="yes"/>
      <point x="528" y="313"/>
      <point x="618" y="404"/>
      <point x="729" y="404" type="curve" smooth="yes"/>
      <point x="841" y="404"/>
      <point x="931" y="313"/>
      <point x="931" y="202" type="curve" smooth="yes"/>
      <point x="931" y="90"/>
      <point x="841" y="0"/>
    </contour>
    <contour>
      <point x="134" y="496" type="line"/>
      <point x="134" y="732" type="line"/>
      <point x="1328" y="732" type="line"/>
      <point x="1328" y="496" type="line"/>
    </contour>
    <contour>
      <point x="729" y="827" type="curve" smooth="yes"/>
      <point x="618" y="827"/>
      <point x="528" y="917"/>
      <point x="528" y="1029" type="curve" smooth="yes"/>
      <point x="528" y="1141"/>
      <point x="618" y="1232"/>
      <point x="729" y="1232" type="curve" smooth="yes"/>
      <point x="841" y="1232"/>
      <point x="931" y="1141"/>
      <point x="931" y="1029" type="curve" smooth="yes"/>
      <point x="931" y="917"/>
      <point x="841" y="827"/>
    </contour>
  </outline>
</glyph>
<glyph name="thorn" format="1">
  <advance width="1177"/>
  <unicode hex="00FE"/>
  <outline>
    <contour>
      <point x="119" y="-391" type="line"/>
      <point x="119" y="1430" type="line"/>
      <point x="429" y="1430" type="line"/>
      <point x="429" y="898" type="line"/>
      <point x="482" y="990"/>
      <point x="606" y="1058"/>
      <point x="734" y="1058" type="curve" smooth="yes"/>
      <point x="1012" y="1058"/>
      <point x="1119" y="841"/>
      <point x="1119" y="522" type="curve" smooth="yes"/>
      <point x="1119" y="192"/>
      <point x="963" y="-23"/>
      <point x="689" y="-23" type="curve" smooth="yes"/>
      <point x="582" y="-23"/>
      <point x="498" y="9"/>
      <point x="429" y="58" type="curve"/>
      <point x="429" y="-391" type="line"/>
    </contour>
    <contour>
      <point x="585" y="204" type="curve" smooth="yes"/>
      <point x="754" y="204"/>
      <point x="804" y="337"/>
      <point x="804" y="520" type="curve" smooth="yes"/>
      <point x="804" y="707"/>
      <point x="752" y="821"/>
      <point x="596" y="821" type="curve" smooth="yes"/>
      <point x="537" y="821"/>
      <point x="471" y="803"/>
      <point x="429" y="762" type="curve"/>
      <point x="429" y="238" type="line"/>
      <point x="465" y="215"/>
      <point x="523" y="204"/>
    </contour>
  </outline>
</glyph>
<glyph name="Dcroat" format="1">
  <advance width="1514"/>
  <unicode hex="0110"/>
  <outline>
    <component base="D"/>
    <contour>
      <point x="0" y="658" type="line"/>
      <point x="0" y="852" type="line"/>
      <point x="704" y="852" type="line"/>
      <point x="704" y="658" type="line"/>
    </contour>
  </outline>
</glyph>
<glyph name="dcroat" format="1">
  <advance width="1219"/>
  <unicode hex="0111"/>
  <outline>
    <component base="d"/>
    <contour>
      <point x="515" y="1158" type="line"/>
      <point x="515" y="1320" type="line"/>
      <point x="1219" y="1320" type="line"/>
      <point x="1219" y="1158" type="line"/>
    </contour>
  </outline>
</glyph>
<glyph name="gcommaaccent" format="1">
  <advance width="1183"/>
  <unicode hex="0123"/>
  <outline>
    <component base="g"/>
    <contour>
      <point x="846" y="1755" type="line"/>
      <point x="787" y="1182" type="line"/>
      <point x="452" y="1182" type="line"/>
      <point x="675" y="1755" type="line"/>
    </contour>
  </outline>
</glyph>
<glyph name="dotlessi" format="1">
  <advance width="553"/>
  <unicode hex="0131"/>
  <outline>
    <contour>
      <point x="121" y="0" type="line"/>
      <point x="121" y="1035" type="line"/>
      <point x="431" y="1035" type="line"/>
      <point x="431" y="0" type="line"/>
    </contour>
  </outline>
</glyph>
<glyph name="kgreenlandic" format="1">
  <advance width="1160"/>
  <unicode hex="0138"/>
  <outline>
    <contour>
      <point x="118" y="0" type="line"/>
      <point x="118" y="1035" type="line"/>
      <point x="429" y="1035" type="line"/>
      <point x="429" y="599" type="line"/>
      <point x="429" y="599" type="line"/>
      <point x="799" y="1035" type="line"/>
      <point x="1127" y="1035" type="line"/>
      <point x="1127" y="991" type="line"/>
      <point x="767" y="579" type="line"/>
      <point x="1144" y="73" type="line"/>
      <point x="1144" y="0" type="line"/>
      <point x="832" y="0" type="line"/>
      <point x="528" y="442" type="line"/>
      <point x="429" y="341" type="line"/>
      <point x="429" y="0" type="line"/>
    </contour>
  </outline>
</glyph>
<glyph name="Lslash" format="1">
  <advance width="1198"/>
  <unicode hex="0141"/>
  <outline>
    <contour>
      <point x="164" y="0" type="line"/>
      <point x="164" y="482" type="line"/>
      <point x="28" y="387" type="line"/>
      <point x="28" y="593" type="line"/>
      <point x="164" y="689" type="line"/>
      <point x="164" y="1481" type="line"/>
      <point x="508" y="1481" type="line"/>
      <point x="508" y="931" type="line"/>
      <point x="758" y="1110" type="line"/>
      <point x="758" y="903" type="line"/>
      <point x="508" y="725" type="line"/>
      <point x="508" y="256" type="line"/>
      <point x="1158" y="256" type="line"/>
      <point x="1158" y="0" type="line"/>
    </contour>
  </outline>
</glyph>
<glyph name="OE" format="1">
  <advance width="1992"/>
  <unicode hex="0152"/>
  <outline>
    <contour>
      <point x="688" y="0" type="line" smooth="yes"/>
      <point x="301" y="0"/>
      <point x="62" y="253"/>
      <point x="62" y="742" type="curve" smooth="yes"/>
      <point x="62" y="1210"/>
      <point x="291" y="1481"/>
      <point x="692" y="1481" type="curve" smooth="yes"/>
      <point x="1885" y="1481" type="line"/>
      <point x="1885" y="1224" type="line"/>
      <point x="1287" y="1224" type="line"/>
      <point x="1287" y="906" type="line"/>
      <point x="1804" y="906" type="line"/>
      <point x="1804" y="653" type="line"/>
      <point x="1287" y="653" type="line"/>
      <point x="1287" y="255" type="line"/>
      <point x="1885" y="255" type="line"/>
      <point x="1885" y="0" type="line"/>
    </contour>
    <contour>
      <point x="726" y="255" type="curve"/>
      <point x="945" y="255" type="line"/>
      <point x="945" y="1224" type="line"/>
      <point x="731" y="1224" type="line" smooth="yes"/>
      <point x="488" y="1224"/>
      <point x="395" y="1076"/>
      <point x="395" y="740" type="curve" smooth="yes"/>
      <point x="395" y="422"/>
      <point x="480" y="259"/>
    </contour>
  </outline>
</glyph>
<glyph name="florin" format="1">
  <advance width="1174"/>
  <unicode hex="0192"/>
  <outline>
    <contour>
      <point x="225" y="-264" type="curve" smooth="yes"/>
      <point x="169" y="-264"/>
      <point x="89" y="-255"/>
      <point x="47" y="-243" type="curve"/>
      <point x="67" y="-1" type="line"/>
      <point x="98" y="-6"/>
      <point x="145" y="-22"/>
      <point x="200" y="-22" type="curve" smooth="yes"/>
      <point x="313" y="-22"/>
      <point x="356" y="119"/>
      <point x="370" y="259" type="curve"/>
      <point x="380" y="325"/>
      <point x="422" y="601"/>
      <point x="431" y="655" type="curve"/>
      <point x="263" y="655" type="line"/>
      <point x="276" y="837" type="line"/>
      <point x="458" y="837" type="line"/>
      <point x="461" y="859"/>
      <point x="485" y="1014"/>
      <point x="489" y="1039" type="curve" smooth="yes"/>
      <point x="538" y="1355"/>
      <point x="729" y="1438"/>
      <point x="944" y="1438" type="curve" smooth="yes"/>
      <point x="996" y="1438"/>
      <point x="1057" y="1432"/>
      <point x="1107" y="1421" type="curve"/>
      <point x="1087" y="1178" type="line"/>
      <point x="1064" y="1184"/>
      <point x="1011" y="1197"/>
      <point x="961" y="1197" type="curve" smooth="yes"/>
      <point x="834" y="1197"/>
      <point x="813" y="1107"/>
      <point x="794" y="979" type="curve" smooth="yes"/>
      <point x="791" y="965"/>
      <point x="777" y="850"/>
      <point x="775" y="837" type="curve"/>
      <point x="1008" y="837" type="line"/>
      <point x="995" y="655" type="line"/>
      <point x="746" y="655" type="line"/>
      <point x="738" y="607"/>
      <point x="679" y="231"/>
      <point x="670" y="176" type="curve" smooth="yes"/>
      <point x="620" y="-151"/>
      <point x="459" y="-264"/>
    </contour>
  </outline>
</glyph>
<glyph name="circumflex" format="1">
  <advance width="852"/>
  <unicode hex="02C6"/>
  <outline>
    <contour>
      <point x="30" y="1171" type="line"/>
      <point x="318" y="1514" type="line"/>
      <point x="532" y="1514" type="line"/>
      <point x="822" y="1171" type="line"/>
      <point x="578" y="1171" type="line"/>
      <point x="424" y="1356" type="line"/>
      <point x="270" y="1171" type="line"/>
    </contour>
  </outline>
</glyph>
<glyph name="caron" format="1">
  <advance width="885"/>
  <unicode hex="02C7"/>
  <outline>
    <contour>
      <point x="330" y="1174" type="line"/>
      <point x="18" y="1514" type="line"/>
      <point x="276" y="1514" type="line"/>
      <point x="444" y="1330" type="line"/>
      <point x="610" y="1514" type="line"/>
      <point x="868" y="1514" type="line"/>
      <point x="554" y="1174" type="line"/>
    </contour>
  </outline>
</glyph>
<glyph name="uni02C9" format="1">
  <advance width="540"/>
  <unicode hex="02C9"/>
  <outline>
    <contour>
      <point x="-8" y="1168" type="line"/>
      <point x="-8" y="1323" type="line"/>
      <point x="548" y="1323" type="line"/>
      <point x="548" y="1168" type="line"/>
    </contour>
  </outline>
</glyph>
<glyph name="breve" format="1">
  <advance width="847"/>
  <unicode hex="02D8"/>
  <outline>
    <contour>
      <point x="424" y="1150" type="curve" smooth="yes"/>
      <point x="196" y="1150"/>
      <point x="77" y="1264"/>
      <point x="74" y="1479" type="curve"/>
      <point x="254" y="1479" type="line"/>
      <point x="263" y="1385"/>
      <point x="300" y="1315"/>
      <point x="424" y="1315" type="curve" smooth="yes"/>
      <point x="535" y="1315"/>
      <point x="583" y="1382"/>
      <point x="590" y="1479" type="curve"/>
      <point x="772" y="1479" type="line"/>
      <point x="769" y="1264"/>
      <point x="635" y="1150"/>
    </contour>
  </outline>
</glyph>
<glyph name="ring" format="1">
  <advance width="751"/>
  <unicode hex="02DA"/>
  <outline>
    <contour>
      <point x="376" y="257" type="curve" smooth="yes"/>
      <point x="486" y="257"/>
      <point x="572" y="344"/>
      <point x="572" y="451" type="curve" smooth="yes"/>
      <point x="572" y="556"/>
      <point x="485" y="646"/>
      <point x="376" y="646" type="curve" smooth="yes"/>
      <point x="266" y="646"/>
      <point x="178" y="556"/>
      <point x="178" y="451" type="curve" smooth="yes"/>
      <point x="178" y="341"/>
      <point x="267" y="257"/>
    </contour>
    <contour>
      <point x="376" y="155" type="curve" smooth="yes"/>
      <point x="204" y="155"/>
      <point x="66" y="286"/>
      <point x="66" y="451" type="curve" smooth="yes"/>
      <point x="66" y="617"/>
      <point x="205" y="746"/>
      <point x="376" y="746" type="curve" smooth="yes"/>
      <point x="547" y="746"/>
      <point x="686" y="616"/>
      <point x="686" y="451" type="curve" smooth="yes"/>
      <point x="686" y="285"/>
      <point x="547" y="155"/>
    </contour>
  </outline>
</glyph>
<glyph name="hungarumlaut" format="1">
  <advance width="807"/>
  <unicode hex="02DD"/>
  <outline>
    <contour>
      <point x="40" y="1160" type="line"/>
      <point x="240" y="1506" type="line"/>
      <point x="541" y="1506" type="line"/>
      <point x="252" y="1160" type="line"/>
    </contour>
    <contour>
      <point x="444" y="1160" type="line"/>
      <point x="646" y="1506" type="line"/>
      <point x="953" y="1506" type="line"/>
      <point x="656" y="1160" type="line"/>
    </contour>
  </outline>
</glyph>
<glyph name="endash" format="1">
  <advance width="1269"/>
  <unicode hex="2013"/>
  <outline>
    <contour>
      <point x="-5" y="469" type="line"/>
      <point x="-5" y="715" type="line"/>
      <point x="1275" y="715" type="line"/>
      <point x="1275" y="469" type="line"/>
    </contour>
  </outline>
</glyph>
<glyph name="emdash" format="1">
  <advance width="1917"/>
  <unicode hex="2014"/>
  <outline>
    <contour>
      <point x="-5" y="469" type="line"/>
      <point x="-5" y="715" type="line"/>
      <point x="1924" y="715" type="line"/>
      <point x="1924" y="469" type="line"/>
    </contour>
  </outline>
</glyph>
<glyph name="quoteleft" format="1">
  <advance width="490"/>
  <unicode hex="2018"/>
  <outline>
    <contour>
      <point x="207" y="962" type="line"/>
      <point x="25" y="1481" type="line"/>
      <point x="315" y="1481" type="line"/>
      <point x="418" y="962" type="line"/>
    </contour>
  </outline>
</glyph>
<glyph name="quotedblleft" format="1">
  <advance width="844"/>
  <unicode hex="201C"/>
  <outline>
    <contour>
      <point x="207" y="962" type="line"/>
      <point x="25" y="1481" type="line"/>
      <point x="315" y="1481" type="line"/>
      <point x="418" y="962" type="line"/>
    </contour>
    <contour>
      <point x="584" y="962" type="line"/>
      <point x="402" y="1481" type="line"/>
      <point x="693" y="1481" type="line"/>
      <point x="795" y="962" type="line"/>
    </contour>
  </outline>
</glyph>
<glyph name="quotedblright" format="1">
  <advance width="843"/>
  <unicode hex="201D"/>
  <outline>
    <contour>
      <point x="75" y="993" type="line"/>
      <point x="174" y="1481" type="line"/>
      <point x="463" y="1481" type="line"/>
      <point x="274" y="993" type="line"/>
    </contour>
    <contour>
      <point x="459" y="993" type="line"/>
      <point x="558" y="1481" type="line"/>
      <point x="847" y="1481" type="line"/>
      <point x="658" y="993" type="line"/>
    </contour>
  </outline>
</glyph>
<glyph name="quotedblbase" format="1">
  <advance width="869"/>
  <unicode hex="201E"/>
  <outline>
    <contour>
      <point x="58" y="-244" type="line"/>
      <point x="158" y="243" type="line"/>
      <point x="468" y="243" type="line"/>
      <point x="227" y="-244" type="line"/>
    </contour>
    <contour>
      <point x="435" y="-244" type="line"/>
      <point x="535" y="243" type="line"/>
      <point x="844" y="243" type="line"/>
      <point x="605" y="-244" type="line"/>
    </contour>
  </outline>
</glyph>
<glyph name="dagger" format="1">
  <advance width="1162"/>
  <unicode hex="2020"/>
  <outline>
    <contour>
      <point x="451" y="-49" type="line"/>
      <point x="451" y="821" type="line"/>
      <point x="111" y="821" type="line"/>
      <point x="111" y="1028" type="line"/>
      <point x="455" y="1028" type="line"/>
      <point x="455" y="1436" type="line"/>
      <point x="711" y="1436" type="line"/>
      <point x="711" y="1026" type="line"/>
      <point x="1052" y="1026" type="line"/>
      <point x="1052" y="818" type="line"/>
      <point x="709" y="818" type="line"/>
      <point x="709" y="-49" type="line"/>
    </contour>
  </outline>
</glyph>
<glyph name="bullet" format="1">
  <advance width="1111"/>
  <unicode hex="2022"/>
  <outline>
    <contour>
      <point x="555" y="208" type="curve" smooth="yes"/>
      <point x="299" y="208"/>
      <point x="89" y="409"/>
      <point x="89" y="655" type="curve" smooth="yes"/>
      <point x="89" y="901"/>
      <point x="301" y="1101"/>
      <point x="555" y="1101" type="curve" smooth="yes"/>
      <point x="814" y="1101"/>
      <point x="1022" y="901"/>
      <point x="1022" y="655" type="curve" smooth="yes"/>
      <point x="1022" y="408"/>
      <point x="812" y="208"/>
    </contour>
  </outline>
</glyph>
<glyph name="guilsinglleft" format="1">
  <advance width="679"/>
  <unicode hex="2039"/>
  <outline>
    <contour>
      <point x="607" y="135" type="line"/>
      <point x="607" y="135"/>
      <point x="207" y="456"/>
      <point x="105" y="532" type="curve"/>
      <point x="105" y="644" type="line"/>
      <point x="208" y="729"/>
      <point x="607" y="1052"/>
      <point x="607" y="1052" type="curve"/>
      <point x="607" y="774" type="line"/>
      <point x="381" y="593" type="line"/>
      <point x="458" y="533"/>
      <point x="531" y="477"/>
      <point x="607" y="415" type="curve"/>
    </contour>
  </outline>
</glyph>
<glyph name="guilsinglright" format="1">
  <advance width="679"/>
  <unicode hex="203A"/>
  <outline>
    <contour>
      <point x="108" y="135" type="curve"/>
      <point x="108" y="412" type="line"/>
      <point x="333" y="593" type="line"/>
      <point x="256" y="653"/>
      <point x="184" y="709"/>
      <point x="108" y="770" type="curve"/>
      <point x="108" y="1052" type="line"/>
      <point x="108" y="1052"/>
      <point x="508" y="730"/>
      <point x="610" y="654" type="curve"/>
      <point x="610" y="542" type="line"/>
      <point x="507" y="457"/>
      <point x="108" y="135"/>
    </contour>
  </outline>
</glyph>
<glyph name="Euro" format="1">
  <advance width="1171"/>
  <unicode hex="20AC"/>
  <outline>
    <contour>
      <point x="773" y="-24" type="curve"/>
      <point x="416" y="-24"/>
      <point x="190" y="134"/>
      <point x="108" y="488" type="curve"/>
      <point x="-42" y="488" type="line"/>
      <point x="-2" y="651" type="line"/>
      <point x="82" y="651" type="line"/>
      <point x="81" y="662"/>
      <point x="80" y="678"/>
      <point x="80" y="696" type="curve" smooth="yes"/>
      <point x="80" y="717"/>
      <point x="81" y="774"/>
      <point x="83" y="819" type="curve"/>
      <point x="-38" y="819" type="line"/>
      <point x="-4" y="973" type="line"/>
      <point x="103" y="973" type="line"/>
      <point x="171" y="1319"/>
      <point x="406" y="1504"/>
      <point x="758" y="1504" type="curve" smooth="yes"/>
      <point x="900" y="1504"/>
      <point x="1047" y="1467"/>
      <point x="1169" y="1406" type="curve"/>
      <point x="1169" y="1105" type="line"/>
      <point x="1066" y="1105" type="line"/>
      <point x="1013" y="1216"/>
      <point x="893" y="1254"/>
      <point x="806" y="1254" type="curve" smooth="yes"/>
      <point x="638" y="1254"/>
      <point x="513" y="1179"/>
      <point x="460" y="973" type="curve"/>
      <point x="1030" y="973" type="line"/>
      <point x="995" y="819" type="line"/>
      <point x="432" y="819" type="line"/>
      <point x="430" y="774"/>
      <point x="428" y="716"/>
      <point x="428" y="696" type="curve" smooth="yes"/>
      <point x="428" y="678"/>
      <point x="428" y="662"/>
      <point x="429" y="651" type="curve"/>
      <point x="968" y="651" type="line"/>
      <point x="930" y="488" type="line"/>
      <point x="469" y="488" type="line"/>
      <point x="515" y="334"/>
      <point x="612" y="233"/>
      <point x="793" y="227" type="curve"/>
      <point x="859" y="227"/>
      <point x="1021" y="244"/>
      <point x="1079" y="376" type="curve"/>
      <point x="1169" y="376" type="line"/>
      <point x="1169" y="72" type="line"/>
      <point x="1054" y="11"/>
      <point x="914" y="-16"/>
    </contour>
  </outline>
</glyph>
<glyph name="product" format="1">
  <advance width="1357"/>
  <unicode hex="220F"/>
  <outline>
    <contour>
      <point x="100" y="0" type="line"/>
      <point x="100" y="1481" type="line"/>
      <point x="1257" y="1481" type="line"/>
      <point x="1257" y="0" type="line"/>
      <point x="963" y="0" type="line"/>
      <point x="963" y="1234" type="line"/>
      <point x="395" y="1234" type="line"/>
      <point x="395" y="0" type="line"/>
    </contour>
  </outline>
</glyph>
<glyph name="minus" format="1">
  <advance width="1158"/>
  <unicode hex="2212"/>
  <outline>
    <contour>
      <point x="90" y="393" type="line"/>
      <point x="90" y="630" type="line"/>
      <point x="1071" y="630" type="line"/>
      <point x="1071" y="393" type="line"/>
    </contour>
  </outline>
</glyph>
<glyph name="uni2219" format="1">
  <advance width="363"/>
  <unicode hex="2219"/>
  <outline>
    <contour>
      <point x="181" y="202" type="curve" smooth="yes"/>
      <point x="70" y="202"/>
      <point x="14" y="262"/>
      <point x="14" y="342" type="curve" smooth="yes"/>
      <point x="14" y="423"/>
      <point x="69" y="482"/>
      <point x="181" y="482" type="curve" smooth="yes"/>
      <point x="292" y="482"/>
      <point x="349" y="423"/>
      <point x="349" y="342" type="curve" smooth="yes"/>
      <point x="349" y="263"/>
      <point x="293" y="202"/>
    </contour>
  </outline>
</glyph>
<glyph name="uniFB00" format="1">
  <advance width="1442"/>
  <unicode hex="FB00"/>
  <outline>
    <contour>
      <point x="172" y="0" type="line"/>
      <point x="172" y="835" type="line"/>
      <point x="26" y="835" type="line"/>
      <point x="26" y="1035" type="line"/>
      <point x="172" y="1035" type="line"/>
      <point x="172" y="1076" type="line" smooth="yes"/>
      <point x="172" y="1327"/>
      <point x="290" y="1443"/>
      <point x="557" y="1443" type="curve" smooth="yes"/>
      <point x="631" y="1443"/>
      <point x="696" y="1436"/>
      <point x="751" y="1430" type="curve"/>
      <point x="751" y="1214" type="line"/>
      <point x="714" y="1218"/>
      <point x="660" y="1225"/>
      <point x="617" y="1225" type="curve" smooth="yes"/>
      <point x="522" y="1225"/>
      <point x="472" y="1189"/>
      <point x="472" y="1035" type="curve"/>
      <point x="868" y="1035" type="line"/>
      <point x="868" y="1076" type="line" smooth="yes"/>
      <point x="868" y="1327"/>
      <point x="986" y="1443"/>
      <point x="1253" y="1443" type="curve" smooth="yes"/>
      <point x="1327" y="1443"/>
      <point x="1392" y="1436"/>
      <point x="1447" y="1430" type="curve"/>
      <point x="1447" y="1214" type="line"/>
      <point x="1410" y="1218"/>
      <point x="1356" y="1225"/>
      <point x="1313" y="1225" type="curve" smooth="yes"/>
      <point x="1218" y="1225"/>
      <point x="1168" y="1189"/>
      <point x="1168" y="1035" type="curve"/>
      <point x="1425" y="1035" type="line"/>
      <point x="1425" y="835" type="line"/>
      <point x="1177" y="835" type="line"/>
      <point x="1177" y="0" type="line"/>
      <point x="868" y="0" type="line"/>
      <point x="868" y="835" type="line"/>
      <point x="481" y="835" type="line"/>
      <point x="481" y="0" type="line"/>
    </contour>
  </outline>
</glyph>
<glyph name="uniFB01" format="1">
  <advance width="1339"/>
  <unicode hex="FB01"/>
  <outline>
    <contour>
      <point x="1037" y="1224" type="curve" smooth="yes"/>
      <point x="926" y="1224"/>
      <point x="870" y="1284"/>
      <point x="870" y="1364" type="curve" smooth="yes"/>
      <point x="870" y="1445"/>
      <point x="925" y="1504"/>
      <point x="1037" y="1504" type="curve" smooth="yes"/>
      <point x="1148" y="1504"/>
      <point x="1205" y="1445"/>
      <point x="1205" y="1364" type="curve" smooth="yes"/>
      <point x="1205" y="1285"/>
      <point x="1149" y="1224"/>
    </contour>
    <contour>
      <point x="172" y="0" type="line"/>
      <point x="172" y="835" type="line"/>
      <point x="26" y="835" type="line"/>
      <point x="26" y="1035" type="line"/>
      <point x="172" y="1035" type="line"/>
      <point x="172" y="1076" type="line" smooth="yes"/>
      <point x="172" y="1327"/>
      <point x="290" y="1443"/>
      <point x="557" y="1443" type="curve" smooth="yes"/>
      <point x="631" y="1443"/>
      <point x="696" y="1436"/>
      <point x="751" y="1430" type="curve"/>
      <point x="751" y="1214" type="line"/>
      <point x="714" y="1218"/>
      <point x="660" y="1225"/>
      <point x="617" y="1225" type="curve" smooth="yes"/>
      <point x="522" y="1225"/>
      <point x="472" y="1189"/>
      <point x="472" y="1035" type="curve"/>
      <point x="1192" y="1035" type="line"/>
      <point x="1192" y="0" type="line"/>
      <point x="883" y="0" type="line"/>
      <point x="883" y="835" type="line"/>
      <point x="481" y="835" type="line"/>
      <point x="481" y="0" type="line"/>
    </contour>
  </outline>
</glyph>
<glyph name="uniFB02" format="1">
  <advance width="1370"/>
  <unicode hex="FB02"/>
  <outline>
    <contour>
      <point x="1241" y="-2" type="line" smooth="yes"/>
      <point x="863.374" y="-2"/>
      <point x="856" y="166.039"/>
      <point x="856" y="333.554" type="curve" smooth="yes"/>
      <point x="856" y="1207.32" type="line"/>
      <point x="813.988" y="1211.69"/>
      <point x="620.085" y="1224.77"/>
      <point x="617" y="1225" type="curve" smooth="yes"/>
      <point x="522" y="1225"/>
      <point x="472" y="1189"/>
      <point x="472" y="1035" type="curve"/>
      <point x="729" y="1035" type="line"/>
      <point x="729" y="835" type="line"/>
      <point x="481" y="835" type="line"/>
      <point x="481" y="0" type="line"/>
      <point x="172" y="0" type="line"/>
      <point x="172" y="835" type="line"/>
      <point x="26" y="835" type="line"/>
      <point x="26" y="1035" type="line"/>
      <point x="172" y="1035" type="line"/>
      <point x="172" y="1076" type="line" smooth="yes"/>
      <point x="172" y="1327"/>
      <point x="290" y="1443"/>
      <point x="557" y="1443" type="curve" smooth="yes"/>
      <point x="782.85" y="1443"/>
      <point x="965.019" y="1410.26"/>
      <point x="1164" y="1387" type="curve"/>
      <point x="1164" y="340" type="line" smooth="yes"/>
      <point x="1164" y="242"/>
      <point x="1209" y="212"/>
      <point x="1326" y="212" type="curve"/>
      <point x="1326" y="-2" type="line"/>
    </contour>
  </outline>
</glyph>
<glyph name="uniFB04" format="1">
  <advance width="2030"/>
  <unicode hex="FB04"/>
  <outline>
    <contour>
      <point x="1905.4" y="-2" type="line" smooth="yes"/>
      <point x="1527.77" y="-2"/>
      <point x="1520.4" y="166.039"/>
      <point x="1520.4" y="333.554" type="curve" smooth="yes"/>
      <point x="1520.4" y="1207.32" type="line"/>
      <point x="1478.39" y="1211.69"/>
      <point x="1284.49" y="1224.77"/>
      <point x="1281.4" y="1225" type="curve" smooth="yes"/>
      <point x="1186.4" y="1225"/>
      <point x="1136.4" y="1189"/>
      <point x="1136.4" y="1035" type="curve"/>
      <point x="1393.4" y="1035" type="line"/>
      <point x="1393.4" y="835" type="line"/>
      <point x="1145.4" y="835" type="line"/>
      <point x="1145.4" y="0" type="line"/>
      <point x="836.4" y="0" type="line"/>
      <point x="836.4" y="835" type="line"/>
      <point x="481" y="835" type="line"/>
      <point x="481" y="0" type="line"/>
      <point x="172" y="0" type="line"/>
      <point x="172" y="835" type="line"/>
      <point x="26" y="835" type="line"/>
      <point x="26" y="1035" type="line"/>
      <point x="172" y="1035" type="line"/>
      <point x="172" y="1076" type="line" smooth="yes"/>
      <point x="172" y="1327"/>
      <point x="290" y="1443"/>
      <point x="557" y="1443" type="curve" smooth="yes"/>
      <point x="631" y="1443"/>
      <point x="696" y="1436"/>
      <point x="751" y="1430" type="curve"/>
      <point x="751" y="1214" type="line"/>
      <point x="714" y="1218"/>
      <point x="660" y="1225"/>
      <point x="617" y="1225" type="curve" smooth="yes"/>
      <point x="522" y="1225"/>
      <point x="472" y="1189"/>
      <point x="472" y="1035" type="curve"/>
      <point x="836.4" y="1035" type="line"/>
      <point x="836.4" y="1076" type="line" smooth="yes"/>
      <point x="836.4" y="1327"/>
      <point x="954.4" y="1443"/>
      <point x="1221.4" y="1443" type="curve" smooth="yes"/>
      <point x="1447.25" y="1443"/>
      <point x="1629.42" y="1410.26"/>
      <point x="1828.4" y="1387" type="curve"/>
      <point x="1828.4" y="340" type="line" smooth="yes"/>
      <point x="1828.4" y="242"/>
      <point x="1873.4" y="212"/>
      <point x="1990.4" y="212" type="curve"/>
      <point x="1990.4" y="-2" type="line"/>
    </contour>
  </outline>
</glyph>
<glyph name="dblgravecmb" format="1">
  <advance width="807"/>
  <outline>
    <contour>
      <point x="108" y="1160" type="line"/>
      <point x="-142" y="1506" type="line"/>
      <point x="158" y="1506" type="line"/>
      <point x="319" y="1160" type="line"/>
    </contour>
    <contour>
      <point x="512" y="1160" type="line"/>
      <point x="263" y="1506" type="line"/>
      <point x="571" y="1506" type="line"/>
      <point x="723" y="1160" type="line"/>
    </contour>
  </outline>
</glyph>
